<?xml version="1.0" encoding="utf-8"?>
<!-- Generator: Adobe Illustrator 24.3.0, SVG Export Plug-In . SVG Version: 6.00 Build 0)  -->
<svg version="1.1" id="Layer_1" xmlns="http://www.w3.org/2000/svg" xmlns:xlink="http://www.w3.org/1999/xlink" x="0px" y="0px"
	 viewBox="0 0 3535 3056" style="enable-background:new 0 0 3535 3056;" xml:space="preserve">
<style type="text/css">
	.st0{fill:#F5F6F6;}
	.st1{fill:#EBEBEB;}
	.st2{fill:#FAFBFB;}
	.st3{fill:#E1E1E1;}
	.st4{fill:#192E35;}
	.st5{fill:#F0525F;}
	.st6{fill:#FFFFFF;}
	.st7{opacity:0.6;}
	.st8{opacity:0.4;}
	.st9{fill:#FAB9A0;}
	.st10{opacity:0.2;}
	.st11{fill:#385A65;}
	.st12{opacity:0.3;}
	.st13{fill:#F7986E;}
	.st14{fill:none;stroke:#192E35;stroke-width:0.05;stroke-miterlimit:10;}
</style>
<g>
	<g>
		<g>
			<g>
				
					<rect x="301.12" y="1841.36" transform="matrix(-1 -1.224647e-16 1.224647e-16 -1 1116.2324 4079.1489)" class="st0" width="513.98" height="396.43"/>
			</g>
		</g>
		<g>
			<g>
				<g>
					<path class="st1" d="M429.9,2234.99c0.71,0,1.29-88.36,1.29-197.34c0-109.02-0.58-197.36-1.29-197.36s-1.29,88.35-1.29,197.36
						C428.62,2146.63,429.19,2234.99,429.9,2234.99z"/>
				</g>
			</g>
		</g>
		<g>
			<g>
				
					<rect x="344.7" y="2147.56" transform="matrix(-1 -1.224647e-16 1.224647e-16 -1 728.814 4339.6553)" class="st2" width="39.4" height="44.54"/>
			</g>
		</g>
		<g>
			<g>
				<rect x="599.92" y="1842.38" class="st1" width="58.38" height="84.59"/>
			</g>
		</g>
		<g>
			<g>
				<rect x="599.92" y="2152.02" class="st1" width="58.38" height="84.59"/>
			</g>
		</g>
	</g>
</g>
<g>
	<g>
		<g>
			<g>
				<rect x="162.49" y="2243.37" class="st1" width="848.48" height="654.42"/>
			</g>
		</g>
		<g>
			<g>
				<g>
					<path class="st3" d="M798.39,2893.17c-0.93,0-1.68-145.87-1.68-325.77c0-179.96,0.75-325.8,1.68-325.8
						c0.93,0,1.68,145.84,1.68,325.8C800.07,2747.3,799.32,2893.17,798.39,2893.17z"/>
				</g>
			</g>
		</g>
		<g>
			<g>
				<rect x="873.98" y="2748.83" class="st2" width="65.05" height="73.53"/>
			</g>
		</g>
		<g>
			<g>
				<rect x="421.34" y="2245.05" class="st3" width="96.38" height="139.64"/>
			</g>
		</g>
		<g>
			<g>
				<rect x="421.34" y="2756.2" class="st3" width="96.38" height="139.64"/>
			</g>
		</g>
	</g>
</g>
<g>
	<g>
		<g>
			<g>
				<path class="st1" d="M1673.88,1090.58c0,0.71-5.52,1.29-12.34,1.29c-6.82,0-12.34-0.58-12.34-1.29s5.52-1.29,12.34-1.29
					C1668.35,1089.29,1673.88,1089.87,1673.88,1090.58z"/>
			</g>
		</g>
	</g>
	<g>
		<g>
			<g>
				<path class="st1" d="M1723.22,1090.58c0,0.71-5.52,1.29-12.34,1.29c-6.82,0-12.34-0.58-12.34-1.29s5.52-1.29,12.34-1.29
					C1717.7,1089.29,1723.22,1089.87,1723.22,1090.58z"/>
			</g>
		</g>
	</g>
	<g>
		<g>
			<g>
				<path class="st1" d="M1772.57,1090.58c0,0.71-5.52,1.29-12.34,1.29c-6.82,0-12.34-0.58-12.34-1.29s5.52-1.29,12.34-1.29
					C1767.05,1089.29,1772.57,1089.87,1772.57,1090.58z"/>
			</g>
		</g>
	</g>
	<g>
		<g>
			<g>
				<path class="st1" d="M1821.92,1090.58c0,0.71-5.52,1.29-12.34,1.29c-6.82,0-12.34-0.58-12.34-1.29s5.52-1.29,12.34-1.29
					C1816.4,1089.29,1821.92,1089.87,1821.92,1090.58z"/>
			</g>
		</g>
	</g>
	<g>
		<g>
			<g>
				<path class="st1" d="M1871.27,1090.58c0,0.71-5.52,1.29-12.34,1.29c-6.82,0-12.34-0.58-12.34-1.29s5.52-1.29,12.34-1.29
					C1865.75,1089.29,1871.27,1089.87,1871.27,1090.58z"/>
			</g>
		</g>
	</g>
	<g>
		<g>
			<g>
				<path class="st1" d="M1920.62,1090.58c0,0.71-5.52,1.29-12.34,1.29c-6.82,0-12.34-0.58-12.34-1.29s5.52-1.29,12.34-1.29
					C1915.09,1089.29,1920.62,1089.87,1920.62,1090.58z"/>
			</g>
		</g>
	</g>
	<g>
		<g>
			<g>
				<path class="st1" d="M1969.97,1090.58c0,0.71-5.52,1.29-12.34,1.29c-6.82,0-12.34-0.58-12.34-1.29s5.52-1.29,12.34-1.29
					C1964.44,1089.29,1969.97,1089.87,1969.97,1090.58z"/>
			</g>
		</g>
	</g>
	<g>
		<g>
			<g>
				<path class="st1" d="M2019.31,1090.58c0,0.71-5.52,1.29-12.34,1.29c-6.82,0-12.34-0.58-12.34-1.29s5.52-1.29,12.34-1.29
					C2013.79,1089.29,2019.31,1089.87,2019.31,1090.58z"/>
			</g>
		</g>
	</g>
	<g>
		<g>
			<g>
				<path class="st1" d="M2068.66,1090.58c0,0.71-5.52,1.29-12.34,1.29c-6.82,0-12.34-0.58-12.34-1.29s5.52-1.29,12.34-1.29
					C2063.14,1089.29,2068.66,1089.87,2068.66,1090.58z"/>
			</g>
		</g>
	</g>
	<g>
		<g>
			<g>
				<path class="st1" d="M2118.01,1090.58c0,0.71-5.52,1.29-12.34,1.29c-6.82,0-12.34-0.58-12.34-1.29s5.52-1.29,12.34-1.29
					C2112.49,1089.29,2118.01,1089.87,2118.01,1090.58z"/>
			</g>
		</g>
	</g>
	<g>
		<g>
			<g>
				<path class="st1" d="M2167.36,1090.58c0,0.71-5.52,1.29-12.34,1.29c-6.82,0-12.34-0.58-12.34-1.29s5.52-1.29,12.34-1.29
					C2161.84,1089.29,2167.36,1089.87,2167.36,1090.58z"/>
			</g>
		</g>
	</g>
	<g>
		<g>
			<g>
				<path class="st1" d="M2216.71,1090.58c0,0.71-5.52,1.29-12.34,1.29c-6.82,0-12.34-0.58-12.34-1.29s5.52-1.29,12.34-1.29
					C2211.18,1089.29,2216.71,1089.87,2216.71,1090.58z"/>
			</g>
		</g>
	</g>
	<g>
		<g>
			<g>
				<path class="st1" d="M2266.06,1090.58c0,0.71-5.52,1.29-12.34,1.29c-6.82,0-12.34-0.58-12.34-1.29s5.52-1.29,12.34-1.29
					C2260.53,1089.29,2266.06,1089.87,2266.06,1090.58z"/>
			</g>
		</g>
	</g>
	<g>
		<g>
			<g>
				<path class="st1" d="M2315.41,1090.58c0,0.71-5.52,1.29-12.34,1.29c-6.82,0-12.34-0.58-12.34-1.29s5.52-1.29,12.34-1.29
					C2309.88,1089.29,2315.41,1089.87,2315.41,1090.58z"/>
			</g>
		</g>
	</g>
	<g>
		<g>
			<g>
				<path class="st1" d="M2364.75,1090.58c0,0.71-5.52,1.29-12.34,1.29c-6.82,0-12.34-0.58-12.34-1.29s5.52-1.29,12.34-1.29
					C2359.23,1089.29,2364.75,1089.87,2364.75,1090.58z"/>
			</g>
		</g>
	</g>
	<g>
		<g>
			<g>
				<path class="st1" d="M2414.1,1090.58c0,0.71-5.52,1.29-12.34,1.29c-6.82,0-12.34-0.58-12.34-1.29s5.52-1.29,12.34-1.29
					C2408.58,1089.29,2414.1,1089.87,2414.1,1090.58z"/>
			</g>
		</g>
	</g>
	<g>
		<g>
			<g>
				<path class="st1" d="M2463.45,1090.58c0,0.71-5.52,1.29-12.34,1.29c-6.82,0-12.34-0.58-12.34-1.29s5.52-1.29,12.34-1.29
					C2457.93,1089.29,2463.45,1089.87,2463.45,1090.58z"/>
			</g>
		</g>
	</g>
	<g>
		<g>
			<g>
				<path class="st1" d="M2512.8,1090.58c0,0.71-5.52,1.29-12.34,1.29c-6.82,0-12.34-0.58-12.34-1.29s5.52-1.29,12.34-1.29
					C2507.27,1089.29,2512.8,1089.87,2512.8,1090.58z"/>
			</g>
		</g>
	</g>
	<g>
		<g>
			<g>
				<path class="st1" d="M2562.15,1090.58c0,0.71-5.52,1.29-12.34,1.29c-6.82,0-12.34-0.58-12.34-1.29s5.52-1.29,12.34-1.29
					C2556.62,1089.29,2562.15,1089.87,2562.15,1090.58z"/>
			</g>
		</g>
	</g>
	<g>
		<g>
			<g>
				<path class="st1" d="M2611.5,1090.58c0,0.71-5.52,1.29-12.34,1.29c-6.82,0-12.34-0.58-12.34-1.29s5.52-1.29,12.34-1.29
					C2605.97,1089.29,2611.5,1089.87,2611.5,1090.58z"/>
			</g>
		</g>
	</g>
	<g>
		<g>
			<g>
				<path class="st1" d="M2660.84,1090.58c0,0.71-5.52,1.29-12.34,1.29c-6.82,0-12.34-0.58-12.34-1.29s5.52-1.29,12.34-1.29
					C2655.32,1089.29,2660.84,1089.87,2660.84,1090.58z"/>
			</g>
		</g>
	</g>
	<g>
		<g>
			<g>
				<path class="st1" d="M2710.19,1090.58c0,0.71-5.52,1.29-12.34,1.29c-6.82,0-12.34-0.58-12.34-1.29s5.52-1.29,12.34-1.29
					C2704.67,1089.29,2710.19,1089.87,2710.19,1090.58z"/>
			</g>
		</g>
	</g>
	<g>
		<g>
			<g>
				<path class="st1" d="M2759.54,1090.58c0,0.71-5.52,1.29-12.34,1.29c-6.82,0-12.34-0.58-12.34-1.29s5.52-1.29,12.34-1.29
					C2754.02,1089.29,2759.54,1089.87,2759.54,1090.58z"/>
			</g>
		</g>
	</g>
	<g>
		<g>
			<g>
				<path class="st1" d="M2772.19,1127.28c-0.71,0-1.28-5.52-1.28-12.34c0-6.81,0.57-12.34,1.28-12.34c0.71,0,1.28,5.52,1.28,12.34
					C2773.47,1121.76,2772.9,1127.28,2772.19,1127.28z"/>
			</g>
		</g>
	</g>
	<g>
		<g>
			<g>
				<path class="st1" d="M2772.19,1176.63c-0.71,0-1.28-5.52-1.28-12.34c0-6.81,0.57-12.34,1.28-12.34c0.71,0,1.28,5.52,1.28,12.34
					C2773.47,1171.1,2772.9,1176.63,2772.19,1176.63z"/>
			</g>
		</g>
	</g>
	<g>
		<g>
			<g>
				<path class="st1" d="M2772.19,1225.98c-0.71,0-1.28-5.52-1.28-12.34c0-6.81,0.57-12.34,1.28-12.34c0.71,0,1.28,5.52,1.28,12.34
					C2773.47,1220.45,2772.9,1225.98,2772.19,1225.98z"/>
			</g>
		</g>
	</g>
	<g>
		<g>
			<g>
				<path class="st1" d="M2772.19,1275.33c-0.71,0-1.28-5.52-1.28-12.34c0-6.81,0.57-12.34,1.28-12.34c0.71,0,1.28,5.52,1.28,12.34
					C2773.47,1269.8,2772.9,1275.33,2772.19,1275.33z"/>
			</g>
		</g>
	</g>
	<g>
		<g>
			<g>
				<path class="st1" d="M2772.19,1324.67c-0.71,0-1.28-5.52-1.28-12.34c0-6.81,0.57-12.34,1.28-12.34c0.71,0,1.28,5.52,1.28,12.34
					C2773.47,1319.15,2772.9,1324.67,2772.19,1324.67z"/>
			</g>
		</g>
	</g>
	<g>
		<g>
			<g>
				<path class="st1" d="M2781.81,1364.4c0,0.61-4.11,1.12-9.62,1.25l-1.24,0.03l-0.01-1.28c-0.01-0.93-0.02-1.81-0.03-2.71
					c0-6.81,0.57-12.34,1.28-12.34c0.71,0,1.28,5.52,1.28,12.34c-0.01,0.9-0.02,1.79-0.03,2.71l-1.25-1.25
					C2777.7,1363.27,2781.81,1363.79,2781.81,1364.4z"/>
			</g>
		</g>
	</g>
	<g>
		<g>
			<g>
				<path class="st1" d="M2831.16,1364.4c0,0.71-5.52,1.29-12.34,1.29c-6.81,0-12.34-0.57-12.34-1.29c0-0.71,5.52-1.28,12.34-1.28
					C2825.63,1363.11,2831.16,1363.69,2831.16,1364.4z"/>
			</g>
		</g>
	</g>
	<g>
		<g>
			<g>
				<path class="st1" d="M2880.51,1364.4c0,0.71-5.52,1.29-12.34,1.29c-6.81,0-12.34-0.57-12.34-1.29c0-0.71,5.52-1.28,12.34-1.28
					C2874.98,1363.11,2880.51,1363.69,2880.51,1364.4z"/>
			</g>
		</g>
	</g>
	<g>
		<g>
			<g>
				<path class="st1" d="M2929.85,1364.4c0,0.71-5.52,1.29-12.34,1.29c-6.81,0-12.34-0.57-12.34-1.29c0-0.71,5.52-1.28,12.34-1.28
					C2924.33,1363.11,2929.85,1363.69,2929.85,1364.4z"/>
			</g>
		</g>
	</g>
	<g>
		<g>
			<g>
				<path class="st1" d="M2979.2,1364.4c0,0.71-5.52,1.29-12.34,1.29c-6.81,0-12.34-0.57-12.34-1.29c0-0.71,5.52-1.28,12.34-1.28
					C2973.68,1363.11,2979.2,1363.69,2979.2,1364.4z"/>
			</g>
		</g>
	</g>
	<g>
		<g>
			<g>
				<path class="st1" d="M3028.55,1364.4c0,0.71-5.52,1.29-12.34,1.29c-6.81,0-12.34-0.57-12.34-1.29c0-0.71,5.52-1.28,12.34-1.28
					C3023.03,1363.11,3028.55,1363.69,3028.55,1364.4z"/>
			</g>
		</g>
	</g>
	<g>
		<g>
			<g>
				<path class="st1" d="M3077.9,1364.4c0,0.71-5.52,1.29-12.34,1.29c-6.81,0-12.34-0.57-12.34-1.29c0-0.71,5.52-1.28,12.34-1.28
					C3072.38,1363.11,3077.9,1363.69,3077.9,1364.4z"/>
			</g>
		</g>
	</g>
	<g>
		<g>
			<g>
				<path class="st1" d="M3127.25,1364.4c0,0.71-5.52,1.29-12.34,1.29c-6.81,0-12.34-0.57-12.34-1.29c0-0.71,5.52-1.28,12.34-1.28
					C3121.72,1363.11,3127.25,1363.69,3127.25,1364.4z"/>
			</g>
		</g>
	</g>
	<g>
		<g>
			<g>
				<path class="st1" d="M3176.6,1364.4c0,0.71-5.52,1.29-12.34,1.29c-6.81,0-12.34-0.57-12.34-1.29c0-0.71,5.52-1.28,12.34-1.28
					C3171.07,1363.11,3176.6,1363.69,3176.6,1364.4z"/>
			</g>
		</g>
	</g>
	<g>
		<g>
			<g>
				<path class="st1" d="M3195.79,1394.56c-0.71,0-1.29-5.52-1.29-12.34c0-6.82,0.58-12.34,1.29-12.34c0.71,0,1.28,5.52,1.28,12.34
					C3197.07,1389.03,3196.5,1394.56,3195.79,1394.56z"/>
			</g>
		</g>
	</g>
	<g>
		<g>
			<g>
				<path class="st1" d="M3195.79,1443.91c-0.71,0-1.29-5.52-1.29-12.34c0-6.82,0.58-12.34,1.29-12.34c0.71,0,1.28,5.52,1.28,12.34
					C3197.07,1438.38,3196.5,1443.91,3195.79,1443.91z"/>
			</g>
		</g>
	</g>
	<g>
		<g>
			<g>
				<path class="st1" d="M3195.79,1493.25c-0.71,0-1.29-5.52-1.29-12.34c0-6.82,0.58-12.34,1.29-12.34c0.71,0,1.28,5.52,1.28,12.34
					C3197.07,1487.73,3196.5,1493.25,3195.79,1493.25z"/>
			</g>
		</g>
	</g>
	<g>
		<g>
			<g>
				<path class="st1" d="M3195.79,1542.6c-0.71,0-1.29-5.52-1.29-12.34c0-6.82,0.58-12.34,1.29-12.34c0.71,0,1.28,5.52,1.28,12.34
					C3197.07,1537.08,3196.5,1542.6,3195.79,1542.6z"/>
			</g>
		</g>
	</g>
	<g>
		<g>
			<g>
				<path class="st1" d="M3195.79,1591.95c-0.71,0-1.29-5.52-1.29-12.34c0-6.82,0.58-12.34,1.29-12.34c0.71,0,1.28,5.52,1.28,12.34
					C3197.07,1586.43,3196.5,1591.95,3195.79,1591.95z"/>
			</g>
		</g>
	</g>
	<g>
		<g>
			<g>
				<path class="st1" d="M3195.79,1641.3c-0.71,0-1.29-5.52-1.29-12.34c0-6.82,0.58-12.34,1.29-12.34c0.71,0,1.28,5.52,1.28,12.34
					C3197.07,1635.78,3196.5,1641.3,3195.79,1641.3z"/>
			</g>
		</g>
	</g>
	<g>
		<g>
			<g>
				<path class="st1" d="M3195.79,1690.65c-0.71,0-1.29-5.52-1.29-12.34c0-6.82,0.58-12.34,1.29-12.34c0.71,0,1.28,5.52,1.28,12.34
					C3197.07,1685.12,3196.5,1690.65,3195.79,1690.65z"/>
			</g>
		</g>
	</g>
	<g>
		<g>
			<g>
				<path class="st1" d="M3195.79,1740c-0.71,0-1.29-5.52-1.29-12.34c0-6.82,0.58-12.34,1.29-12.34c0.71,0,1.28,5.52,1.28,12.34
					C3197.07,1734.47,3196.5,1740,3195.79,1740z"/>
			</g>
		</g>
	</g>
	<g>
		<g>
			<g>
				<path class="st1" d="M3195.79,1789.34c-0.71,0-1.29-5.52-1.29-12.34c0-6.82,0.58-12.34,1.29-12.34c0.71,0,1.28,5.52,1.28,12.34
					C3197.07,1783.82,3196.5,1789.34,3195.79,1789.34z"/>
			</g>
		</g>
	</g>
	<g>
		<g>
			<g>
				<path class="st1" d="M3195.79,1838.69c-0.71,0-1.29-5.52-1.29-12.34c0-6.82,0.58-12.34,1.29-12.34c0.71,0,1.28,5.52,1.28,12.34
					C3197.07,1833.17,3196.5,1838.69,3195.79,1838.69z"/>
			</g>
		</g>
	</g>
	<g>
		<g>
			<g>
				<path class="st1" d="M3195.79,1888.04c-0.71,0-1.29-5.52-1.29-12.34c0-6.82,0.58-12.34,1.29-12.34c0.71,0,1.28,5.52,1.28,12.34
					C3197.07,1882.52,3196.5,1888.04,3195.79,1888.04z"/>
			</g>
		</g>
	</g>
</g>
<g>
	<g>
		<g>
			<g>
				<path class="st1" d="M1932.82,1174.79c0,0-38.31-21.21-75.85,69.37c-37.54,90.59-50.41,142.14-50.41,142.14
					s-10.3,19.17-23.77,8.23c-13.47-10.94-33.3-43.43-54.13-35.66c-21.6,8.05-26.94,33.29-19.88,69.2
					c7.06,35.91,19.65,115.15,20.76,122.32c1.09,7.04-2.14,17.79-12.52,11.8c-10.37-5.98-71.94-64.59-98-33.7
					c-26.06,30.88,10.05,127.68,13.8,138.34c3.74,10.66,1.98,15.47-2.98,18.57c-4.96,3.1-23.8-18.55-41.99-34.5
					c-18.19-15.95-42.09-31.25-55.63-12.18c-13.54,19.08-12.48,93.75,67.71,208.89l40.65,50.92l64.86-8.73
					c137.66-27.15,190.28-80.15,193.78-103.28c3.5-23.13-24.32-28.71-48.48-29.87c-24.17-1.16-52.76,1.34-54.17-4.34
					c-1.42-5.67,0.66-10.37,10.76-15.43c10.1-5.07,103.3-49.64,106-89.96c2.69-40.32-82.3-40.91-93.92-43.8
					c-11.62-2.9-6.48-12.88-0.81-17.19c5.78-4.39,69.86-52.66,99.88-73.6c30.02-20.93,43.7-42.8,33.75-63.59
					c-9.59-20.05-46.42-10.44-63.71-11.93c-17.29-1.48-11.39-22.43-11.39-22.43s26.54-46.03,62.43-137.28
					c35.89-91.25-7.52-102.66-7.52-102.66"/>
			</g>
		</g>
	</g>
	<g>
		<g>
			<g>
				<g>
					<path class="st3" d="M1642.8,1885c26.6-66.92,64.15-159.06,105.96-260.7c41.8-101.61,79.57-193.63,106.55-260.4
						c13.43-33.32,24.31-60.33,31.88-79.1c3.74-9.26,6.67-16.49,8.69-21.5c0.99-2.38,1.76-4.23,2.31-5.57
						c0.53-1.25,0.86-1.87,0.86-1.87s-0.18,0.68-0.65,1.95c-0.51,1.36-1.21,3.24-2.11,5.65c-1.94,5.05-4.73,12.33-8.3,21.65
						c-7.23,18.79-17.91,45.91-31.22,79.37c-26.61,66.92-64.15,159.05-105.95,260.66c-41.81,101.64-79.59,193.68-106.56,260.44"/>
				</g>
			</g>
		</g>
	</g>
	<g>
		<g>
			<g>
				<g>
					<path class="st3" d="M1754.56,1405.43c0.14-0.05,0.86,1.47,2.02,4.26c1.18,2.79,2.76,6.88,4.66,11.95
						c3.78,10.15,8.62,24.3,13.67,40.02c4.9,15.48,9.33,29.47,12.75,40.29c1.54,4.78,2.84,8.85,3.92,12.19
						c0.93,2.87,1.38,4.49,1.24,4.55c-0.14,0.06-0.87-1.46-2.06-4.25c-1.17-2.8-2.75-6.89-4.6-11.98
						c-3.68-10.19-8.34-24.4-13.38-40.11c-5.01-15.43-9.53-29.39-13.04-40.18c-1.56-4.77-2.89-8.84-3.98-12.17
						C1754.86,1407.11,1754.42,1405.49,1754.56,1405.43z"/>
				</g>
			</g>
		</g>
	</g>
	<g>
		<g>
			<g>
				<g>
					<path class="st3" d="M1798.88,1519.37c-0.22-0.58,28.51-11.87,64.16-25.22c35.66-13.35,64.73-23.71,64.95-23.13
						c0.22,0.58-28.51,11.87-64.17,25.22C1828.18,1509.59,1799.09,1519.95,1798.88,1519.37z"/>
				</g>
			</g>
		</g>
	</g>
	<g>
		<g>
			<g>
				<g>
					<path class="st3" d="M1727.64,1672.54c-0.01-0.15,1.7-0.37,4.77-0.64c3.56-0.28,7.91-0.61,13.04-1.01
						c11-0.86,26.19-2.1,42.9-4.07c16.72-1.93,31.79-4.19,42.7-5.91c5.08-0.79,9.39-1.46,12.92-2.01c3.06-0.45,4.76-0.63,4.79-0.48
						c0.03,0.15-1.62,0.62-4.63,1.34c-3.01,0.71-7.38,1.66-12.81,2.71c-10.85,2.12-25.94,4.64-42.71,6.57
						c-16.76,1.97-32.02,2.97-43.07,3.43c-5.52,0.21-10,0.32-13.09,0.3C1729.36,1672.77,1727.65,1672.7,1727.64,1672.54z"/>
				</g>
			</g>
		</g>
	</g>
	<g>
		<g>
			<g>
				<g>
					<path class="st3" d="M1664.87,1578.3c0.13-0.09,1.14,1.13,2.86,3.41c1.72,2.28,4.15,5.62,7.12,9.77
						c5.93,8.31,14,19.87,22.8,32.72c8.8,12.85,16.66,24.56,22.26,33.09c2.8,4.27,5.03,7.74,6.53,10.17s2.27,3.81,2.15,3.9
						c-0.13,0.09-1.14-1.13-2.86-3.41c-1.72-2.28-4.15-5.62-7.12-9.77c-5.93-8.31-14-19.87-22.8-32.72
						c-8.8-12.85-16.66-24.55-22.26-33.08c-2.8-4.27-5.03-7.74-6.54-10.17C1665.52,1579.77,1664.75,1578.39,1664.87,1578.3z"/>
				</g>
			</g>
		</g>
	</g>
	<g>
		<g>
			<g>
				<g>
					<path class="st3" d="M1584.8,1705.53c0.13-0.09,1.4,1.49,3.61,4.41c2.43,3.31,5.5,7.5,9.16,12.49
						c7.66,10.61,18.11,25.35,29.54,41.7c11.43,16.36,21.68,31.25,29.01,42.09c3.43,5.16,6.31,9.49,8.58,12.9
						c1.99,3.07,3.02,4.82,2.9,4.9c-0.13,0.09-1.4-1.49-3.61-4.41c-2.43-3.31-5.5-7.5-9.16-12.49
						c-7.66-10.61-18.11-25.35-29.54-41.71c-11.43-16.36-21.68-31.24-29.01-42.08c-3.43-5.16-6.31-9.49-8.58-12.9
						C1585.72,1707.36,1584.68,1705.62,1584.8,1705.53z"/>
				</g>
			</g>
		</g>
	</g>
	<g>
		<g>
			<g>
				<g>
					<path class="st3" d="M1666.42,1820.63c-0.01-0.15,2.13-0.48,6.03-0.95c4.31-0.49,9.85-1.12,16.48-1.87
						c13.91-1.59,33.12-3.83,54.26-6.9c21.15-3.04,40.22-6.28,54.01-8.71c6.58-1.15,12.06-2.11,16.34-2.86
						c3.86-0.66,6.02-0.95,6.05-0.8c0.03,0.15-2.06,0.73-5.87,1.65c-3.81,0.92-9.35,2.15-16.22,3.56
						c-13.73,2.83-32.8,6.33-53.99,9.37c-21.18,3.07-40.45,5.08-54.42,6.26c-6.99,0.57-12.65,0.98-16.56,1.17
						C1668.61,1820.75,1666.44,1820.79,1666.42,1820.63z"/>
				</g>
			</g>
		</g>
	</g>
</g>
<g>
	<g>
		<g>
			<path class="st0" d="M3369.18,2008.81c0-106.75-96.48-190.97-207-170.23c-69.52,13.05-124.92,69.82-137.09,139.5
				c-7.61,43.55,1.38,84.52,21.24,118.33h-0.1l0.49,0.65c6.65,11.21,14.98,19.22,23.39,30.99l100.67,133.36
				c12.53,16.59,37.45,16.59,49.98,0l99-131.16c0,0,18.48-22.04,25.18-33.36l0.36-0.47h-0.07
				C3360.36,2070.67,3369.18,2040.8,3369.18,2008.81z M3195.79,2084.3c-42.14,0-76.31-34.16-76.31-76.31
				c0-42.14,34.16-76.31,76.31-76.31c42.14,0,76.31,34.16,76.31,76.31C3272.09,2050.13,3237.93,2084.3,3195.79,2084.3z"/>
		</g>
	</g>
</g>
<g>
	<g>
		<g>
			<path class="st0" d="M2550.5,1237.83v203.93c0,4.39,3.56,7.95,7.95,7.95h427.58c4.43,0,8-3.62,7.95-8.05l-0.98-74.67
				c-0.02-1.68-0.58-3.31-1.58-4.66l-61.32-81.99c-1.49-1.99-3.82-3.17-6.3-3.19l-70.66-0.54c-4.36-0.03-7.89-3.58-7.89-7.95v-30.83
				c0-4.39-3.56-7.95-7.95-7.95h-278.84C2554.06,1229.89,2550.5,1233.45,2550.5,1237.83z"/>
		</g>
	</g>
	<g>
		<g>
			<path class="st1" d="M2865.11,1294.41v65.44c0,2.55,2.09,4.6,4.64,4.55l94.38-1.69c3.62-0.06,5.72-4.12,3.69-7.11l-44.12-65.11
				c-0.87-1.29-2.34-2.04-3.89-2l-50.26,1.36C2867.08,1289.92,2865.11,1291.94,2865.11,1294.41z"/>
		</g>
	</g>
	<g>
		<g>
			<rect x="2541.9" y="1455.92" class="st0" width="460.58" height="14.21"/>
		</g>
	</g>
	<g>
		<g>
			
				<ellipse transform="matrix(0.7071 -0.7071 0.7071 0.7071 -257.5587 2300.907)" class="st1" cx="2648.66" cy="1461.35" rx="45.56" ry="45.56"/>
		</g>
	</g>
	<g>
		<g>
			<path class="st2" d="M2675.48,1461.35c0,14.81-12,26.81-26.81,26.81c-14.81,0-26.81-12.01-26.81-26.81
				c0-14.81,12.01-26.81,26.81-26.81C2663.47,1434.54,2675.48,1446.55,2675.48,1461.35z"/>
		</g>
	</g>
	<g>
		<g>
			<g>
				<path class="st1" d="M2844.87,1449.71c-1.15,0-2.08-49.21-2.08-109.9c0-60.71,0.93-109.92,2.08-109.92
					c1.15,0,2.08,49.2,2.08,109.92C2846.95,1400.5,2846.02,1449.71,2844.87,1449.71z"/>
			</g>
		</g>
	</g>
	<g>
		<g>
			<g>
				
					<ellipse transform="matrix(0.7071 -0.7071 0.7071 0.7071 -184.8479 2476.4465)" class="st1" cx="2896.91" cy="1461.35" rx="45.56" ry="45.56"/>
			</g>
		</g>
		<g>
			<g>
				<path class="st2" d="M2923.73,1461.35c0,14.81-12,26.81-26.81,26.81c-14.81,0-26.81-12.01-26.81-26.81
					c0-14.81,12.01-26.81,26.81-26.81C2911.72,1434.54,2923.73,1446.55,2923.73,1461.35z"/>
			</g>
		</g>
	</g>
	<g>
		<g>
			<g>
				<path class="st1" d="M2897.03,1377.29c0,1.15-6.52,2.08-14.57,2.08c-8.05,0-14.57-0.93-14.57-2.08c0-1.15,6.52-2.08,14.57-2.08
					C2890.5,1375.22,2897.03,1376.15,2897.03,1377.29z"/>
			</g>
		</g>
	</g>
</g>
<g>
	<g>
		<g>
			<path class="st4" d="M3454.74,2897.79c0,0.71-773.43,1.29-1727.29,1.29C773.27,2899.07,0,2898.5,0,2897.79
				c0-0.71,773.27-1.28,1727.45-1.28C2681.31,2896.5,3454.74,2897.08,3454.74,2897.79z"/>
		</g>
	</g>
</g>
<g>
	<g>
		<g>
			<g>
				<g>
					<path class="st5" d="M631.62,2862.22c112.4-77.95,138.35-223.27,134.37-353.99c-0.66-21.82,1.82-44.81-8.5-64
						c-10.32-19.17-34.49-32.34-54.05-23.22c-16.23,7.57-23.36,26.39-32.48,41.95c-12.13,20.7-30.16,37.8-51.34,48.7
						c-13.92,7.16-31.12,11.51-44.81,3.9c-18.78-10.45-20.91-36.46-20.7-58.16c0.4-40.44,0.79-80.89,1.18-121.33
						c0.21-21.7,0.35-43.86-6.32-64.47c-6.68-20.62-21.52-39.8-42.14-45.66c-20.63-5.85-46.19,5.96-50.63,27.18
						c-1.85,8.83-0.08,18.02-0.71,27.02c-0.63,9.01-4.87,18.96-13.43,21.44c-8.67,2.51-17.33-3.67-23.8-10.04
						c-22.32-21.99-37.42-50.27-51.53-78.39c-14.11-28.12-27.79-56.9-48.03-80.87c-20.24-23.97-48.28-43-79.35-44.87
						c-31.08-1.87-64.25,17.2-72.21,47.68c-7.98,30.57,9.76,61.67,29.09,86.5c28.69,36.84,62.66,69.45,100.52,96.49
						c6.82,4.88,14.22,10.15,16.81,18.2c4.66,14.48-9.1,28.8-23.4,33.51c-16.2,5.33-33.74,3.59-50.67,5.52
						c-16.93,1.93-35.28,9.33-41.74,25.3c-8.97,22.15,9.5,45.46,27.7,60.75c36.44,30.62,78.09,54.85,122.56,71.32
						c15.94,5.9,32.72,11.08,45.56,22.34c12.83,11.27,20.53,30.79,12.7,46.05c-7.84,15.28-27.81,20.1-44.52,16.93
						c-16.7-3.15-31.64-12.29-47.56-18.35c-29.78-11.36-68.3-9.44-87.49,16.27c-12.61,16.9-13.8,40.48-7.52,60.7
						c6.27,20.22,19.09,37.66,32.71,53.74c47.6,56.24,108.63,101.6,177.73,125.83C498.71,2880.41,562.79,2887.12,631.62,2862.22"/>
				</g>
			</g>
		</g>
	</g>
	<g>
		<g>
			<g>
				<g>
					<g>
						<path class="st4" d="M624.19,2899c-4.56-51.8-6.89-52.86-26.02-118.84c-19.01-66.03-45.84-136.68-76.45-209.61
							c-7.72-18.2-15.35-36.19-22.86-53.91c-7.54-17.68-15.02-35.21-23.4-51.91c-16.61-33.47-35.13-64.39-53.63-93.18
							c-18.49-28.81-37.09-55.48-54.66-80.29c-17.63-24.78-34.5-47.57-50.76-67.68c-32.41-40.37-62.35-69.77-83.72-89.11
							c-10.67-9.71-19.19-16.97-25.04-21.82c-2.81-2.3-5.02-4.11-6.68-5.47c-1.52-1.21-2.32-1.81-2.36-1.75
							c-0.05,0.05,0.66,0.75,2.1,2.07c1.6,1.43,3.72,3.34,6.42,5.77c5.67,5.04,14.02,12.49,24.52,22.36
							c21.02,19.68,50.54,49.28,82.57,89.75c16.08,20.17,32.77,43,50.26,67.83c17.44,24.88,35.91,51.57,54.28,80.37
							c18.36,28.78,36.74,59.62,53.21,92.93c8.31,16.62,15.7,34,23.25,51.73c7.51,17.72,15.12,35.7,22.84,53.89
							c30.58,72.88,57.45,143.31,76.6,209.09c19.26,65.72,21.84,66.48,26.73,118.06"/>
					</g>
				</g>
			</g>
		</g>
	</g>
	<g>
		<g>
			<g>
				<g>
					<g>
						<path class="st4" d="M474.31,2464.57c0.27,0.04,1.02-3.25,2.15-9.25c1.16-5.99,2.55-14.71,4.12-25.52
							c3.14-21.6,6.47-51.57,10.01-84.62c3.54-33.08,7.28-62.91,10.74-84.4c1.7-10.75,3.16-19.44,4.26-25.43
							c1.06-6,1.51-9.35,1.24-9.42c-0.27-0.06-1.24,3.17-2.76,9.09c-1.56,5.9-3.45,14.53-5.51,25.26
							c-4.19,21.44-8.4,51.35-11.93,84.45c-3.41,32.63-6.49,62.15-8.85,84.7c-1.13,10.18-2.09,18.76-2.85,25.65
							C474.28,2461.14,474.04,2464.52,474.31,2464.57z"/>
					</g>
				</g>
			</g>
		</g>
	</g>
	<g>
		<g>
			<g>
				<g>
					<g>
						<path class="st4" d="M195.5,2411.45c-0.01,0.27,3.96,0.75,11.12,1.37c7.16,0.66,17.52,1.56,30.28,3.09
							c25.54,2.85,60.69,8.02,99.22,15.42c38.53,7.47,73.1,15.71,97.94,22.4c12.45,3.26,22.45,6.16,29.37,8.13
							c6.92,2,10.79,2.97,10.88,2.71c0.09-0.27-3.62-1.75-10.41-4.21c-6.8-2.43-16.7-5.76-29.09-9.38
							c-24.71-7.41-59.31-16.12-97.95-23.62c-38.64-7.41-73.99-12.16-99.68-14.28c-12.84-1.17-23.27-1.64-30.47-1.82
							C199.5,2411.12,195.52,2411.17,195.5,2411.45z"/>
					</g>
				</g>
			</g>
		</g>
	</g>
	<g>
		<g>
			<g>
				<g>
					<g>
						<path class="st4" d="M594.76,2775.02c0.13,0.06,0.78-1.11,1.93-3.4c1.3-2.72,2.89-6.05,4.81-10.08
							c4.14-8.77,9.79-21.61,16.56-37.57c13.57-31.91,30.93-76.59,49.42-126.14c18.5-49.57,35.42-94.35,48.31-126.5
							c6.31-15.63,11.51-28.48,15.37-38.04c1.65-4.15,3.01-7.57,4.13-10.38c0.9-2.39,1.32-3.67,1.19-3.73
							c-0.13-0.05-0.78,1.12-1.93,3.4c-1.3,2.72-2.88,6.04-4.81,10.07c-4.14,8.77-9.79,21.61-16.56,37.57
							c-13.57,31.91-30.93,76.59-49.43,126.16c-18.5,49.56-35.42,94.33-48.3,126.49c-6.32,15.62-11.51,28.48-15.37,38.03
							c-1.65,4.15-3.01,7.57-4.13,10.38C595.05,2773.68,594.63,2774.96,594.76,2775.02z"/>
					</g>
				</g>
			</g>
		</g>
	</g>
	<g>
		<g>
			<g>
				<g>
					<g>
						<path class="st4" d="M224.44,2654.24c-0.04,0.14,1.23,0.66,3.67,1.53c2.9,0.98,6.45,2.18,10.75,3.65
							c9.93,3.26,23.34,7.66,39.66,13c33.48,10.99,79.55,26.7,130.43,44.12c50.9,17.44,97.16,32.73,130.88,43.03
							c16.86,5.16,30.54,9.19,40.05,11.78c4.4,1.17,8.02,2.13,10.97,2.92c2.52,0.62,3.87,0.89,3.9,0.75
							c0.04-0.13-1.23-0.66-3.67-1.54c-2.89-0.97-6.44-2.18-10.75-3.64c-9.93-3.26-23.34-7.65-39.65-13
							c-33.48-10.98-79.56-26.7-130.46-44.13c-50.88-17.43-97.14-32.73-130.86-43.02c-16.86-5.16-30.54-9.19-40.06-11.78
							c-4.4-1.17-8.02-2.14-10.97-2.92C225.82,2654.36,224.48,2654.1,224.44,2654.24z"/>
					</g>
				</g>
			</g>
		</g>
	</g>
</g>
<g>
	<g>
		<g>
			<g>
				<g>
					<g>
						<g>
							<g>
								<g>
									<g>
										<g>
											<g>
												<path class="st4" d="M1473.53,2897.79l-763.48,0c-92.25-0.42-170.21-79.08-169.82-171.33l8.13-1922.89
													c0.39-92.3,75.55-166.8,167.85-166.37l767,3.54c92.25,0.43,166.69,75.54,166.3,167.78l-8.13,1922.9
													C1640.99,2823.72,1565.83,2898.21,1473.53,2897.79z"/>
											</g>
										</g>
									</g>
								</g>
							</g>
						</g>
					</g>
				</g>
			</g>
		</g>
	</g>
	<g>
		<g>
			<g>
				<g>
					<g>
						<path class="st0" d="M1482.11,713.8l-148.71-0.69c-19.94-0.09-36.18,16.74-36.27,37.58l-0.12,26.98
							c-0.08,20.85-16.33,37.68-36.27,37.58l-289.87-1.34c-19.94-0.09-36.04-17.07-35.95-37.92l0.12-26.97
							c0.09-20.85-16.01-37.83-35.95-37.92l-52.3-0.24l-130.16-0.6c-64.64-0.3-117.28,51.88-117.55,116.52l-7.93,1876.88
							c-0.27,64.61,51.86,117.21,116.47,117.51l765.47,3.53c64.64,0.3,117.27-51.87,117.55-116.51l7.93-1876.89
							C1598.85,766.7,1546.71,714.1,1482.11,713.8z"/>
					</g>
				</g>
			</g>
		</g>
		<g>
			<g>
				<path class="st0" d="M1157.24,2470.04c-0.88,22.66-1.7,43.92-2.4,61.59h109.96l-13.46-67.54L1157.24,2470.04z"/>
			</g>
			<g>
				<path class="st0" d="M710.36,2498.3l0.96,33.32h432.54c0.73-18.71,1.54-39.47,2.37-60.89L710.36,2498.3z"/>
			</g>
			<g>
				<polygon class="st0" points="1256.86,2463.73 1270.39,2531.62 1473.1,2531.62 1470.66,2450.21 				"/>
			</g>
			<g>
				<polygon class="st0" points="1168.21,1514.71 1206.55,1292.47 1106.15,1285.04 1106.15,1514.71 				"/>
			</g>
			<g>
				<polygon class="st0" points="701.32,2374.93 592.36,2417.61 592.04,2494.79 704.56,2487.68 				"/>
			</g>
			<g>
				<polygon class="st0" points="700.82,2357.57 694.86,2150.58 694.78,2150.59 694.78,2077.59 593.75,2088.29 592.44,2399.91 
					700.78,2357.46 				"/>
			</g>
			<g>
				<polygon class="st0" points="694.78,1914.63 594.54,1901.4 593.82,2071.74 694.78,2061.05 				"/>
			</g>
			<g>
				<polygon class="st0" points="1441.88,2080.67 1437.66,2139.99 1319.28,2152.76 1328.44,2199.69 1462.83,2189.56 
					1460.81,2122.25 1471.53,2077.68 				"/>
			</g>
			<g>
				<polygon class="st0" points="1228.52,2207.22 1322.94,2200.1 1302.37,2094.75 1219.97,2103.06 				"/>
			</g>
			<g>
				<polygon class="st0" points="1229.42,2218.16 1236.63,2306.01 1249.44,2426.5 1254.69,2452.88 1470.33,2439.24 1463.16,2200.54 
									"/>
			</g>
			<g>
				<path class="st0" d="M858.28,1803.4l8.29,14.22l-166.31,97v230.09l175.52-12.42l338.27-34.14l-12.38-150.82l-323.16-42.22
					l2.13-16.32l319.65,41.76l-20.96-255.26l-316.39,30.42l-1.05-10.92l316.54-30.44l-10.94-133.19H863.17l-267.26,48.64l-1.29,305
					l101.2,13.36L858.28,1803.4z M717.3,2122.75c0,0,1.25-189.73,0-196.81l135.7-72.19l17.59,259.3L717.3,2122.75z"/>
			</g>
			<g>
				<polygon class="st0" points="1430.8,2081.79 1307.85,2094.2 1317.17,2141.95 1427.37,2130.06 				"/>
			</g>
			<g>
				<path class="st0" d="M1158.8,2429.39c-0.38,9.96-0.76,19.89-1.14,29.63l91.51-5.79l-4.7-23.6L1158.8,2429.39z"/>
			</g>
			<g>
				<polygon class="st0" points="961.69,1514.71 977.82,1441.62 1100.67,1441.62 1100.67,1284.63 716.52,1256.18 716.52,1403.59 
					596.53,1430.72 595.97,1563.07 861.68,1514.71 				"/>
			</g>
			<g>
				<path class="st0" d="M1218.02,1077.87l-3.28-13.45l146.69-58.05l-95.42-191.54c-1.72,0.26-3.47,0.43-5.27,0.42l-162.11-0.75
					l4.41,268.06L1218.02,1077.87z"/>
			</g>
			<g>
				<path class="st0" d="M1440.33,975.15l-0.17-261.54l-106.76-0.49c-19.94-0.09-36.18,16.74-36.27,37.58l-0.12,26.98
					c-0.05,12.87-6.27,24.19-15.7,30.96l95.48,191.66L1440.33,975.15z"/>
			</g>
			<g>
				<path class="st0" d="M888.87,986.37L876.5,711.01l-29.71-0.14l-116.03-0.53l-49.43,246.25L888.87,986.37z M862.43,738.91
					l3.95,224.25L712.16,940.6l33.77-201.69L862.43,738.91z"/>
			</g>
			<g>
				<path class="st0" d="M894.47,987.18l0.03,2.35c0.26,21.49,0.71,60.16,1.03,101.53l202.04-8.26l-4.42-268.31l-122.27-0.57
					c-19.94-0.09-36.04-17.07-35.95-37.92l0.12-26.97c0.09-20.85-16.01-37.83-35.95-37.92l-17.1-0.08l12.4,276.13L894.47,987.18z"/>
			</g>
			<g>
				<path class="st0" d="M665.02,954.24l48.94-243.84c-63.4,1.14-114.61,52.65-114.88,116.4l-0.51,121.56l0.52-3.58L665.02,954.24z"
					/>
			</g>
			<g>
				<polygon class="st0" points="700.06,1254.96 597.31,1247.34 596.6,1413.83 700.06,1390.43 				"/>
			</g>
			<g>
				<polygon class="st0" points="663.94,959.62 598.56,950.24 597.42,1219.85 611.5,1220.89 				"/>
			</g>
			<g>
				<polygon class="st0" points="871.48,2354.42 873.21,2137.97 700.34,2150.19 706.44,2362.25 				"/>
			</g>
			<g>
				<path class="st0" d="M903.28,2304.47l244.82,117.28c2.92-76.64,5.52-148.31,5.28-152.88l5.31-0.28l2.59-5.17
					c3.48,1.74,3.48,1.74,1.66,53.99c-1.02,29.15-2.47,67.94-3.94,106.75h84.67l-12.5-117.63l-16.66-202.91l-319.87,32.28
					L903.28,2304.47z"/>
			</g>
			<g>
				<polygon class="st0" points="1503.39,1945.23 1500.63,1916.69 1207.17,1947.22 1219.52,2097.6 1472.89,2072.03 				"/>
			</g>
			<g>
				<polygon class="st0" points="1100.67,1458.08 991.05,1458.08 978.54,1514.71 1100.67,1514.71 				"/>
			</g>
			<g>
				<path class="st0" d="M1458.07,1477.19l-274.54-18.99l-11.19,64.86l11.56,140.77l289.55-27.84L1458.07,1477.19z M1193.62,1522.94
					l14.74-40.93l238.46,15.08l13.8,117.1l-258.92,30.71L1193.62,1522.94z"/>
			</g>
			<g>
				<polygon class="st0" points="1486.56,1771.42 1474.5,1646.91 1184.8,1674.77 1195.68,1807.26 				"/>
			</g>
			<g>
				<polygon class="st0" points="704.88,2498.65 592.48,2505.76 592.02,2498.44 591.88,2531.62 705.83,2531.62 				"/>
			</g>
			<g>
				<path class="st0" d="M1596.56,913.32l1.66,4.18l0.36-86.19c0.27-64.61-51.86-117.2-116.47-117.51l-36.46-0.17l0.17,259.34
					L1596.56,913.32z"/>
			</g>
			<g>
				<path class="st0" d="M1147.88,2427.72L897.97,2308l-8.81-171.55l-10.47,1.06l-1.77,222.15l-170.33,8.08l0.14,4.95l0.04,0.1
					l-0.04,0.01l3.3,114.53l436.61-27.62C1147.06,2449.09,1147.47,2438.38,1147.88,2427.72z M717.3,2381.85l238.4-16.73l155.1,71.96
					l-393.51,21.3V2381.85z"/>
			</g>
			<g>
				<path class="st0" d="M1525.53,1201.36l10.22-60.64c-89.62-31.98-95.82-125.43-95.55-153.72l-58.5,23.15l88.08,176.8
					L1525.53,1201.36z"/>
			</g>
			<g>
				<polygon class="st0" points="1205.82,1930.81 1327.66,1918.14 1303.65,1810.53 1197.02,1823.67 				"/>
			</g>
			<g>
				<polygon class="st0" points="1458.51,1294.32 1230.93,1294.28 1212.05,1292.88 1186.34,1441.9 1456.46,1460.58 1450.19,1395.79 
					1476.78,1300.09 				"/>
			</g>
			<g>
				<path class="st0" d="M1452.93,1266.89l2.85-71.13l-89.44-179.53l-138.68,54.88l47.68,195.78H1452.93z M1360.94,1038.06
					l81.96,155.92l-11.84,48.59l-140.23-5.28l-35.06-147.48L1360.94,1038.06z"/>
			</g>
			<g>
				<polygon class="st0" points="1488.34,2125.1 1492.53,2264.81 1591.13,2259.26 1591.44,2264.74 1492.7,2270.29 1497.72,2437.5 
					1590.94,2431.61 1591.63,2442.56 1498.05,2448.48 1500.54,2531.62 1591.39,2531.62 1593.36,2065.38 1500.45,2074.76 				"/>
			</g>
			<g>
				<path class="st0" d="M889.05,991.94l-208.79-29.97l-52.22,260.15l261.93,19.4C891.01,1201.47,890.1,1078.61,889.05,991.94z"/>
			</g>
			<g>
				<polygon class="st0" points="1232.45,1266.89 1264.04,1266.89 1219.34,1083.31 1103.14,1088.06 1105.93,1257.52 				"/>
			</g>
			<g>
				<path class="st0" d="M591.32,2665.17l-0.16,38.5c0,1.19,0.13,2.34,0.16,3.52V2665.17z"/>
			</g>
			<g>
				<path class="st0" d="M895.31,1241.91l205.12,15.19l-2.78-168.83l-202.09,8.26C896,1153.63,896.17,1214.53,895.31,1241.91z"/>
			</g>
			<g>
				<polygon class="st0" points="1488.15,1787.8 1309.12,1809.86 1333.16,1917.57 1499.04,1900.31 				"/>
			</g>
			<g>
				<path class="st0" d="M1536.68,1135.22l11.47-68.05l49.42,3.85l0.62-146.54l-152.43,60.33
					C1442.65,1087.92,1507.42,1124.18,1536.68,1135.22z"/>
			</g>
			<g>
				<polygon class="st0" points="1477.98,1398.23 1484.21,1462.5 1595.88,1470.23 1596.44,1337.87 1502.95,1308.35 				"/>
			</g>
			<g>
				<path class="st0" d="M1531.13,1947.17l-29.33,121.94l91.58-9.24l0.54-127.87c-28.1-7.4-52.63-13.43-65.81-15.97L1531.13,1947.17
					z"/>
			</g>
			<g>
				<polygon class="st0" points="1469.32,1268.97 1596.56,1309.15 1596.86,1236.79 1471.9,1204.5 				"/>
			</g>
			<g>
				<path class="st0" d="M1526.5,1899.28c10.26,1.55,29.69,5.68,67.5,15.61l1.18-279.59l-93.37,8.98L1526.5,1899.28z"/>
			</g>
			<g>
				<polygon class="st0" points="1500.75,1633.36 1595.23,1624.28 1595.81,1486.72 1485.82,1479.11 				"/>
			</g>
			<g>
				<path class="st0" d="M1547.22,1138.69c17.91,5.44,34.57,9.66,50,12.75l0.29-69.42l-40.22-3.13L1547.22,1138.69z"/>
			</g>
			<g>
				<path class="st0" d="M1536.2,1204.12l60.74,15.7l0.27-62.73c-15.71-3.15-32.67-7.42-50.9-12.94L1536.2,1204.12z"/>
			</g>
			<g>
				<path class="st6" d="M704.88,2498.65l0.95,32.97h5.49l-0.96-33.32l435.87-27.57c-0.83,21.42-1.64,42.18-2.37,60.89h10.98
					c0.69-17.67,1.52-38.92,2.4-61.59l94.1-5.95l13.46,67.54h5.59l-13.53-67.89l213.8-13.52l2.44,81.41h27.44l-2.5-83.14l93.58-5.92
					l-0.69-10.95l-93.22,5.9l-5.02-167.21l98.74-5.55l-0.31-5.48l-98.59,5.55l-4.19-139.71l12.11-50.34l92.91-9.38l0.02-5.51
					l-91.58,9.24l29.33-121.94l-3.02-31.14c13.18,2.54,37.7,8.57,65.81,15.97l0.07-17.1c-37.81-9.94-57.24-14.07-67.5-15.61
					l-24.69-255l93.37-8.98l0.05-11.03l-94.47,9.08l-14.93-154.25l109.99,7.61l0.07-16.49l-111.67-7.73l-6.22-64.28l24.96-89.87
					l93.49,29.52l0.12-28.73l-127.23-40.18l2.58-64.47l124.96,32.29l0.07-16.98l-60.74-15.7l10.11-59.98
					c18.23,5.52,35.18,9.8,50.9,12.94l0.02-5.64c-15.43-3.09-32.09-7.31-50-12.75l10.08-59.8l40.22,3.13l0.05-11l-49.42-3.85
					l-11.47,68.05c-29.26-11.04-94.03-47.3-90.93-150.42l152.43-60.33l0.03-6.98l-1.66-4.18l-150.75,59.66l-0.17-259.34l-5.49-0.03
					l0.17,261.54l-63.54,25.14l-95.48-191.66c-4.48,3.21-9.68,5.37-15.3,6.2l95.42,191.54l-146.69,58.05l3.28,13.45l-114.97,4.7
					l-4.41-268.06l-5.49-0.03l4.42,268.31l-202.04,8.26c-0.32-41.37-0.76-80.04-1.03-101.53l-0.03-2.35l-0.08-0.01L882,711.03
					l-5.49-0.03l12.37,275.37l-207.53-29.79l49.43-246.25l-14.13-0.06c-0.9,0-1.77,0.11-2.67,0.12l-48.94,243.84l-65.94-9.47
					l-0.52,3.58l-0.01,1.89l65.38,9.38l-52.44,261.27l-14.07-1.04l-0.12,27.5l102.75,7.61v135.48l-103.46,23.4l-0.07,16.89
					l119.98-27.14v-147.41l384.15,28.46v156.99H977.82l-16.14,73.09h-100l-265.71,48.36l-0.07,16.74l267.26-48.64h304.33
					l10.94,133.19l-316.54,30.44l1.05,10.92l316.39-30.42l20.96,255.26l-319.65-41.76l-2.13,16.32l323.16,42.22l12.38,150.82
					l-338.27,34.14l-175.52,12.42v-230.09l166.31-97l-8.29-14.22l-162.47,94.76l-101.2-13.36l-0.07,16.59l100.24,13.23v146.42
					l-100.96,10.69l-0.07,16.55l101.03-10.7v73l0.08-0.01l5.96,206.98l-0.04-0.1l-108.34,42.44l-0.08,17.7l108.96-42.68l3.24,112.75
					l-112.53,7.12l-0.02,3.65l0.46,7.32L704.88,2498.65z M1157.66,2459.01c0.38-9.74,0.76-19.67,1.14-29.63l85.67,0.23l4.7,23.6
					L1157.66,2459.01z M1254.69,2452.88l-5.26-26.38l-12.81-120.49l-7.21-87.85l233.75-17.62l7.16,238.7L1254.69,2452.88z
					 M1307.85,2094.2l122.95-12.41l-3.43,48.28l-110.2,11.88L1307.85,2094.2z M1302.37,2094.75l20.56,105.36l-94.42,7.12
					l-8.55-104.16L1302.37,2094.75z M1462.83,2189.56l-134.39,10.13l-9.16-46.93l118.38-12.77l4.22-59.32l29.65-2.99l-10.72,44.58
					L1462.83,2189.56z M1303.65,1810.53l24.01,107.61l-121.84,12.68l-8.8-107.14L1303.65,1810.53z M1333.16,1917.57l-24.03-107.71
					l179.03-22.06l10.89,112.51L1333.16,1917.57z M1456.46,1460.58l-270.12-18.69l25.71-149.01l18.89,1.4l227.57,0.04l18.27,5.77
					l-26.59,95.71L1456.46,1460.58z M1440.2,987c-0.26,28.29,5.94,121.74,95.55,153.72l-10.22,60.64l-55.75-14.41l-88.08-176.8
					L1440.2,987z M1366.34,1016.23l89.44,179.53l-2.85,71.13h-177.6l-47.68-195.78L1366.34,1016.23z M1219.34,1083.31l44.7,183.58
					h-31.59l-126.52-9.37l-2.79-169.46L1219.34,1083.31z M1097.66,1088.28l2.78,168.83l-205.12-15.19
					c0.86-27.38,0.68-88.28,0.26-145.38L1097.66,1088.28z M680.26,961.97l208.79,29.97c1.05,86.67,1.97,209.53,0.92,249.58
					l-261.93-19.4L680.26,961.97z M1206.55,1292.47l-38.34,222.24h-62.06v-229.67L1206.55,1292.47z M991.05,1458.08h109.62v56.63
					H978.54L991.05,1458.08z M1172.34,1523.06l11.19-64.86l274.54,18.99l15.37,158.79l-289.55,27.84L1172.34,1523.06z
					 M1474.5,1646.91l12.06,124.51l-290.88,35.84l-10.88-132.49L1474.5,1646.91z M1207.17,1947.22l293.46-30.52l2.76,28.54
					l-30.5,126.8l-253.38,25.57L1207.17,1947.22z M1231.17,2306.52l12.5,117.63H1159c1.48-38.8,2.93-77.6,3.94-106.75
					c1.82-52.24,1.82-52.24-1.66-53.99l-2.59,5.17l-5.31,0.28c0.24,4.57-2.36,76.23-5.28,152.88l-244.82-117.28l-8.65-168.57
					l319.87-32.28L1231.17,2306.52z M873.21,2137.97l-1.73,216.46l-165.04,7.83l-6.1-212.06L873.21,2137.97z M706.75,2372.8
					l0.04-0.01l-0.04-0.1l-0.14-4.95l170.33-8.08l1.77-222.15l10.47-1.06l8.81,171.55l249.9,119.72
					c-0.41,10.66-0.82,21.37-1.22,31.99l-436.61,27.62L706.75,2372.8z"/>
			</g>
			<g>
				<polygon class="st1" points="955.7,2365.12 717.3,2381.85 717.3,2458.38 1110.81,2437.08 				"/>
			</g>
			<g>
				<polygon class="st1" points="1446.82,1497.09 1208.36,1482.01 1193.62,1522.94 1201.7,1644.9 1460.62,1614.19 				"/>
			</g>
			<g>
				<path class="st1" d="M707.62,2821.18l765.47,3.53c64.64,0.3,117.27-51.87,117.55-116.51l0.75-176.58h-90.85h-27.44h-202.71
					h-5.59h-109.96h-10.98H711.32h-5.49H591.88l-0.56,133.55v42.02C592.92,2770.17,644.2,2820.89,707.62,2821.18z"/>
			</g>
			<g>
				<polygon class="st1" points="866.38,963.17 862.43,738.91 745.94,738.91 712.16,940.6 				"/>
			</g>
			<g>
				<polygon class="st1" points="1431.06,1242.57 1442.9,1193.98 1360.94,1038.06 1255.77,1089.82 1290.83,1237.29 				"/>
			</g>
			<g>
				<path class="st1" d="M717.3,1925.94c1.25,7.08,0,196.81,0,196.81l153.29-9.7L853,1853.75L717.3,1925.94z"/>
			</g>
		</g>
		<g>
			<polygon class="st1" points="1228.56,2080.01 1220.45,1962.43 1483.35,1928.64 1483.35,1948.91 1451.56,2057.04 			"/>
		</g>
		<g>
			<g>
				<g>
					<g>
						<path class="st5" d="M1034.08,1104.98c0,17.68-14.34,32.02-32.02,32.02c-17.68,0-32.02-14.34-32.02-32.02
							c0-17.68,14.34-32.02,32.02-32.02C1019.74,1072.96,1034.08,1087.29,1034.08,1104.98z"/>
					</g>
					<g class="st7">
						<path class="st6" d="M1034.05,1103.61c0.76,17.67-12.95,32.6-30.62,33.36c-17.67,0.76-32.6-12.95-33.36-30.62
							c-0.76-17.67,12.95-32.6,30.62-33.36C1018.36,1072.23,1033.29,1085.94,1034.05,1103.61z"/>
					</g>
					<g>
						<circle class="st5" cx="1002.06" cy="1103.88" r="21.3"/>
					</g>
					<g>
						<path class="st5" d="M1497.04,2384c0,7.56-6.13,13.68-13.68,13.68s-13.68-6.13-13.68-13.68c0-7.56,6.13-13.68,13.68-13.68
							S1497.04,2376.45,1497.04,2384z"/>
					</g>
					<g>
						<path class="st5" d="M1475.13,2379.56l-3.3-76.68l-231.12,11.23c-6.02,0.31-12.06-0.99-17.46-3.71l-327.8-165.56
							c-7.59-3.84-12.57-11.49-13.01-19.97l-44.62-865.33c-0.21-4.15,1.37-8.19,4.34-11.1c2.97-2.9,7.07-4.36,11.19-4.09
							l140.48,10.41v-153.58h16.46v155.71c0,4.01-1.68,7.88-4.63,10.61c-2.94,2.73-6.92,4.11-10.92,3.83l-140.37-10.4l44.51,863.09
							c0.13,2.6,1.66,4.95,3.99,6.13l327.79,165.56c2.86,1.44,6.01,2.14,9.25,1.97l233.03-11.33c3.93-0.16,7.63,1.15,10.51,3.78
							c2.88,2.63,4.57,6.22,4.74,10.13l3.38,78.6L1475.13,2379.56z"/>
					</g>
				</g>
				<g>
					<circle class="st5" cx="864.66" cy="1635.26" r="41.48"/>
				</g>
				<g>
					<circle class="st2" cx="864.66" cy="1635.26" r="28.81"/>
					<path class="st5" d="M864.66,1666.13c-17.02,0-30.87-13.85-30.87-30.87c0-17.02,13.85-30.87,30.87-30.87
						c17.02,0,30.87,13.85,30.87,30.87C895.53,1652.28,881.68,1666.13,864.66,1666.13z M864.66,1608.5
						c-14.75,0-26.76,12-26.76,26.76c0,14.75,12,26.75,26.76,26.75c14.75,0,26.75-12,26.75-26.75
						C891.42,1620.51,879.41,1608.5,864.66,1608.5z"/>
				</g>
			</g>
			<g>
				<g>
					<g>
						<path class="st5" d="M1108.99,1461.27h-197.5c-9.6,0-17.38,7.78-17.38,17.38v71.52c0,9.6,7.78,17.38,17.38,17.38h2.3v17.05
							l19.77-17.05h175.43c9.6,0,17.38-7.78,17.38-17.38v-71.52C1126.37,1469.06,1118.59,1461.27,1108.99,1461.27z"/>
					</g>
				</g>
				<g class="st8">
					<g>
						<path class="st6" d="M1108.99,1461.27h-197.5c-9.6,0-17.38,7.78-17.38,17.38v71.52c0,9.6,7.78,17.38,17.38,17.38h2.3v17.05
							l19.77-17.05h175.43c9.6,0,17.38-7.78,17.38-17.38v-71.52C1126.37,1469.06,1118.59,1461.27,1108.99,1461.27z"/>
					</g>
				</g>
				<g>
					<path class="st6" d="M938.51,1513.31c0-6.54,5.04-11.42,11.9-11.42c6.79,0,11.83,4.85,11.83,11.42
						c0,6.57-5.04,11.42-11.83,11.42C943.55,1524.72,938.51,1519.85,938.51,1513.31z M959.05,1513.31c0-4.95-3.7-8.58-8.64-8.58
						c-5.01,0-8.71,3.63-8.71,8.58c0,4.94,3.7,8.58,8.71,8.58C955.35,1521.89,959.05,1518.25,959.05,1513.31z"/>
					<path class="st6" d="M984.18,1516.02c0,5.17-3.6,8.64-8.55,8.64c-2.49,0-4.66-0.96-6.03-2.87v2.68h-2.94v-23.66h3.06v9.31
						c1.4-1.82,3.51-2.71,5.9-2.71C980.58,1507.41,984.18,1510.85,984.18,1516.02z M981.09,1516.02c0-3.61-2.46-5.93-5.71-5.93
						c-3.22,0-5.68,2.33-5.68,5.93c0,3.6,2.45,5.96,5.68,5.96C978.63,1521.98,981.09,1519.62,981.09,1516.02z"/>
					<path class="st6" d="M982.59,1529.83l0.99-2.36c0.61,0.51,1.5,0.8,2.49,0.8c1.63,0,2.52-1.02,2.52-2.97v-17.73h3.06v17.67
						c0,3.44-1.91,5.61-5.39,5.61C984.85,1530.85,983.45,1530.53,982.59,1529.83z M988.04,1502.34c0-1.12,0.89-2.01,2.07-2.01
						c1.18,0,2.07,0.86,2.07,1.94c0,1.15-0.86,2.04-2.07,2.04C988.94,1504.31,988.04,1503.45,988.04,1502.34z"/>
					<path class="st6" d="M1012.7,1517.04h-13.71c0.38,2.97,2.78,4.94,6.12,4.94c1.98,0,3.63-0.67,4.88-2.04l1.69,1.98
						c-1.53,1.78-3.86,2.74-6.67,2.74c-5.45,0-9.09-3.6-9.09-8.64c0-5.01,3.6-8.61,8.48-8.61c4.88,0,8.36,3.51,8.36,8.71
						C1012.76,1516.37,1012.73,1516.75,1012.7,1517.04z M998.98,1514.84h10.84c-0.32-2.84-2.46-4.85-5.42-4.85
						C1001.47,1509.99,999.3,1511.97,998.98,1514.84z"/>
					<path class="st6" d="M1015.44,1516.02c0-5.04,3.73-8.61,8.93-8.61c3.03,0,5.55,1.24,6.89,3.61l-2.33,1.5
						c-1.08-1.66-2.74-2.42-4.59-2.42c-3.32,0-5.8,2.33-5.8,5.93c0,3.67,2.49,5.96,5.8,5.96c1.85,0,3.51-0.76,4.59-2.42l2.33,1.47
						c-1.34,2.36-3.86,3.64-6.89,3.64C1019.17,1524.66,1015.44,1521.06,1015.44,1516.02z"/>
					<path class="st6" d="M1044.94,1523.48c-0.93,0.8-2.33,1.18-3.7,1.18c-3.41,0-5.36-1.88-5.36-5.29v-9.28h-2.87v-2.52h2.87v-3.7
						h3.06v3.7h4.85v2.52h-4.85v9.15c0,1.82,0.96,2.84,2.65,2.84c0.89,0,1.75-0.29,2.39-0.8L1044.94,1523.48z"/>
					<path class="st6" d="M1048.1,1502.34c0-1.12,0.89-2.01,2.07-2.01c1.18,0,2.07,0.86,2.07,1.94c0,1.15-0.86,2.04-2.07,2.04
						C1048.99,1504.31,1048.1,1503.45,1048.1,1502.34z M1048.64,1507.57h3.06v16.9h-3.06V1507.57z"/>
					<path class="st6" d="M1072.49,1507.57l-7.4,16.9h-3.13l-7.4-16.9h3.19l5.8,13.55l5.93-13.55H1072.49z"/>
					<path class="st6" d="M1090.1,1517.04h-13.71c0.38,2.97,2.78,4.94,6.12,4.94c1.98,0,3.64-0.67,4.88-2.04l1.69,1.98
						c-1.53,1.78-3.86,2.74-6.67,2.74c-5.45,0-9.09-3.6-9.09-8.64c0-5.01,3.6-8.61,8.48-8.61c4.88,0,8.36,3.51,8.36,8.71
						C1090.17,1516.37,1090.13,1516.75,1090.1,1517.04z M1076.39,1514.84h10.84c-0.32-2.84-2.46-4.85-5.42-4.85
						C1078.88,1509.99,1076.71,1511.97,1076.39,1514.84z"/>
				</g>
			</g>
			<g>
				<g>
					<path class="st5" d="M1043.75,997.39c0-25.28-22.85-45.22-49.02-40.31c-16.46,3.09-29.58,16.53-32.46,33.03
						c-1.8,10.31,0.33,20.01,5.03,28.02h-0.02l0.12,0.15c1.57,2.65,3.55,4.55,5.54,7.34l23.84,31.58c2.97,3.93,8.87,3.93,11.83,0
						l23.44-31.06c0,0,4.38-5.22,5.96-7.9l0.09-0.11h-0.02C1041.66,1012.04,1043.75,1004.97,1043.75,997.39z M1002.69,1015.27
						c-9.98,0-18.07-8.09-18.07-18.07s8.09-18.07,18.07-18.07c9.98,0,18.07,8.09,18.07,18.07S1012.67,1015.27,1002.69,1015.27z"/>
				</g>
			</g>
		</g>
		<g>
			<g>
				<g>
					<path class="st4" d="M777.91,2615.03h-7.65v-2.78h18.46v2.78h-7.65v19.55h-3.16V2615.03z"/>
				</g>
				<g>
					<path class="st4" d="M788.43,2626.12c0-5.04,3.73-8.61,8.8-8.61c5.07,0,8.77,3.57,8.77,8.61c0,5.04-3.7,8.65-8.77,8.65
						C792.17,2634.77,788.43,2631.16,788.43,2626.12z M802.91,2626.12c0-3.6-2.42-5.93-5.68-5.93c-3.25,0-5.71,2.33-5.71,5.93
						c0,3.61,2.46,5.97,5.71,5.97C800.49,2632.09,802.91,2629.73,802.91,2626.12z"/>
				</g>
				<g>
					<path class="st4" d="M819.76,2633.59c-0.93,0.8-2.33,1.18-3.7,1.18c-3.41,0-5.36-1.89-5.36-5.3v-9.28h-2.87v-2.52h2.87v-3.7
						h3.06v3.7h4.85v2.52h-4.85v9.16c0,1.82,0.96,2.84,2.65,2.84c0.89,0,1.75-0.29,2.39-0.8L819.76,2633.59z"/>
				</g>
				<g>
					<path class="st4" d="M836.85,2624.37v10.21h-2.9v-2.23c-1.02,1.53-2.9,2.43-5.55,2.43c-3.83,0-6.25-2.04-6.25-4.98
						c0-2.71,1.75-4.95,6.79-4.95h4.85v-0.61c0-2.58-1.5-4.08-4.53-4.08c-2.01,0-4.05,0.7-5.36,1.82l-1.27-2.3
						c1.75-1.4,4.27-2.17,6.98-2.17C834.23,2617.51,836.85,2619.75,836.85,2624.37z M833.79,2629.41v-2.36h-4.72
						c-3.03,0-3.89,1.18-3.89,2.61c0,1.69,1.4,2.74,3.73,2.74C831.21,2632.41,833.02,2631.36,833.79,2629.41z"/>
				</g>
				<g>
					<path class="st4" d="M842.52,2610.91h3.06v23.66h-3.06V2610.91z"/>
				</g>
				<g>
					<path class="st4" d="M875.95,2610.91v23.66h-2.94v-2.68c-1.37,1.91-3.54,2.87-6.03,2.87c-4.95,0-8.55-3.48-8.55-8.65
						c0-5.16,3.6-8.61,8.55-8.61c2.39,0,4.5,0.89,5.9,2.71v-9.31H875.95z M872.92,2626.12c0-3.6-2.45-5.93-5.68-5.93
						c-3.25,0-5.71,2.33-5.71,5.93c0,3.61,2.46,5.97,5.71,5.97C870.46,2632.09,872.92,2629.73,872.92,2626.12z"/>
				</g>
				<g>
					<path class="st4" d="M881.21,2612.44c0-1.12,0.89-2.01,2.07-2.01c1.18,0,2.07,0.86,2.07,1.95c0,1.15-0.86,2.04-2.07,2.04
						C882.1,2614.42,881.21,2613.56,881.21,2612.44z M881.75,2617.67h3.06v16.9h-3.06V2617.67z"/>
				</g>
				<g>
					<path class="st4" d="M888.52,2632.79l1.28-2.43c1.44,1.02,3.73,1.76,5.93,1.76c2.84,0,4.02-0.86,4.02-2.3
						c0-3.79-10.68-0.51-10.68-7.24c0-3.03,2.71-5.07,7.05-5.07c2.2,0,4.69,0.57,6.16,1.53l-1.31,2.42
						c-1.53-0.99-3.22-1.34-4.88-1.34c-2.68,0-3.99,0.99-3.99,2.33c0,3.99,10.72,0.73,10.72,7.3c0,3.06-2.81,5.01-7.3,5.01
						C892.69,2634.77,889.92,2633.91,888.52,2632.79z"/>
				</g>
				<g>
					<path class="st4" d="M916.14,2633.59c-0.93,0.8-2.33,1.18-3.7,1.18c-3.41,0-5.36-1.89-5.36-5.3v-9.28h-2.87v-2.52h2.87v-3.7
						h3.06v3.7h4.85v2.52h-4.85v9.16c0,1.82,0.96,2.84,2.65,2.84c0.89,0,1.75-0.29,2.39-0.8L916.14,2633.59z"/>
				</g>
				<g>
					<path class="st4" d="M933.23,2624.37v10.21h-2.9v-2.23c-1.02,1.53-2.9,2.43-5.55,2.43c-3.83,0-6.25-2.04-6.25-4.98
						c0-2.71,1.75-4.95,6.79-4.95h4.85v-0.61c0-2.58-1.5-4.08-4.53-4.08c-2.01,0-4.05,0.7-5.36,1.82l-1.28-2.3
						c1.75-1.4,4.27-2.17,6.98-2.17C930.61,2617.51,933.23,2619.75,933.23,2624.37z M930.17,2629.41v-2.36h-4.72
						c-3.03,0-3.89,1.18-3.89,2.61c0,1.69,1.4,2.74,3.73,2.74C927.58,2632.41,929.4,2631.36,930.17,2629.41z"/>
				</g>
				<g>
					<path class="st4" d="M954.95,2624.85v9.73h-3.06v-9.38c0-3.32-1.66-4.94-4.56-4.94c-3.25,0-5.36,1.94-5.36,5.61v8.71h-3.06
						v-16.9h2.94v2.55c1.24-1.72,3.41-2.71,6.09-2.71C952.05,2617.51,954.95,2619.88,954.95,2624.85z"/>
				</g>
				<g>
					<path class="st4" d="M959.16,2626.12c0-5.04,3.73-8.61,8.93-8.61c3.03,0,5.55,1.24,6.89,3.61l-2.33,1.5
						c-1.08-1.66-2.74-2.43-4.59-2.43c-3.32,0-5.81,2.33-5.81,5.93c0,3.67,2.49,5.97,5.81,5.97c1.85,0,3.51-0.77,4.59-2.43
						l2.33,1.47c-1.34,2.36-3.86,3.64-6.89,3.64C962.89,2634.77,959.16,2631.16,959.16,2626.12z"/>
				</g>
				<g>
					<path class="st4" d="M993.89,2627.15h-13.71c0.38,2.97,2.78,4.94,6.12,4.94c1.98,0,3.63-0.67,4.88-2.04l1.69,1.98
						c-1.53,1.78-3.86,2.74-6.67,2.74c-5.45,0-9.09-3.61-9.09-8.65c0-5,3.6-8.61,8.48-8.61c4.88,0,8.36,3.51,8.36,8.71
						C993.95,2626.48,993.92,2626.86,993.89,2627.15z M980.17,2624.94h10.84c-0.32-2.84-2.46-4.85-5.42-4.85
						C982.66,2620.1,980.49,2622.07,980.17,2624.94z"/>
				</g>
			</g>
			<g>
				<g>
					<path class="st4" d="M797.95,2659.61v53.26h-12.33v-43.37h-10.65v-9.89H797.95z"/>
				</g>
				<g>
					<path class="st4" d="M821.62,2706.03c0,1.98-0.31,3.42-2.05,7.61l-4.34,10.96h-7.54l3.35-12.1c-2.51-0.99-4.11-3.35-4.11-6.47
						c0-4.41,3.2-7.31,7.38-7.31C818.57,2698.72,821.62,2701.69,821.62,2706.03z"/>
				</g>
				<g>
					<path class="st4" d="M846.5,2659.61v53.26h-12.33v-43.37h-10.65v-9.89H846.5z"/>
				</g>
				<g>
					<path class="st4" d="M855.78,2686.24c0-17.58,9.74-27.55,22.83-27.55c13.16,0,22.83,9.97,22.83,27.55
						c0,17.58-9.66,27.54-22.83,27.54C865.52,2713.78,855.78,2703.82,855.78,2686.24z M889.03,2686.24
						c0-12.1-4.26-17.12-10.42-17.12c-6.09,0-10.35,5.03-10.35,17.12c0,12.1,4.26,17.12,10.35,17.12
						C884.77,2703.36,889.03,2698.34,889.03,2686.24z"/>
				</g>
				<g>
					<path class="st4" d="M907.44,2686.24c0-17.58,9.74-27.55,22.83-27.55c13.16,0,22.83,9.97,22.83,27.55
						c0,17.58-9.66,27.54-22.83,27.54C917.18,2713.78,907.44,2703.82,907.44,2686.24z M940.69,2686.24
						c0-12.1-4.26-17.12-10.42-17.12c-6.09,0-10.35,5.03-10.35,17.12c0,12.1,4.26,17.12,10.35,17.12
						C936.43,2703.36,940.69,2698.34,940.69,2686.24z"/>
				</g>
				<g>
					<path class="st4" d="M1052.32,2689.44v23.44h-11.87v-21.61c0-6.62-2.97-9.66-7.76-9.66c-5.33,0-9.06,3.42-9.06,10.73v20.55
						h-11.87v-21.61c0-6.62-2.81-9.66-7.76-9.66c-5.25,0-8.98,3.42-8.98,10.73v20.55h-11.87v-40.94h11.34v4.71
						c3.04-3.5,7.61-5.33,12.86-5.33c5.71,0,10.58,2.21,13.47,6.7c3.27-4.18,8.6-6.7,14.76-6.7
						C1045.32,2671.33,1052.32,2676.96,1052.32,2689.44z"/>
				</g>
			</g>
			<g>
				<g>
					<g>
						
							<ellipse transform="matrix(0.2289 -0.9734 0.9734 0.2289 -2047.0387 2726.6245)" class="st5" cx="697.61" cy="2655.46" rx="45.94" ry="45.94"/>
					</g>
				</g>
				<g>
					<g>
						<g>
							<path class="st2" d="M679.06,2663.82c0-0.27,4.29-0.51,11.8-0.73c7.5-0.21,18.22-0.39,31.07-0.51l-0.94,2.05
								c-3.63-4.19-7.58-8.75-11.72-13.54l-0.74-0.86l0.72-0.89c3.68-4.6,7.57-9.45,11.58-14.46l1.11,2.32c-1.66,0-3.43,0-5.22,0
								c-13.54-0.05-26.34-0.11-37.65-0.15l1.28-1.28c-0.12,13.94-0.3,25.66-0.52,33.89c-0.22,8.23-0.48,12.99-0.76,12.99
								c-0.28,0-0.54-4.75-0.76-12.99c-0.22-8.23-0.4-19.95-0.52-33.89l-0.01-1.27l1.29,0c11.31-0.05,24.11-0.1,37.65-0.15
								c1.79,0,3.56,0,5.22,0l2.99,0l-1.88,2.32c-4.04,4.98-7.95,9.81-11.66,14.39l-0.02-1.75c4.07,4.84,7.95,9.46,11.52,13.71
								l1.74,2.07l-2.69-0.03c-12.85-0.12-23.57-0.3-31.07-0.51C683.35,2664.33,679.06,2664.08,679.06,2663.82z"/>
						</g>
					</g>
				</g>
			</g>
		</g>
		<g>
			<g>
				<path class="st5" d="M1440.51,2577.09h-138.84c-14.67,0-26.56,11.89-26.56,26.56v109.3c0,14.67,11.89,26.56,26.56,26.56h3.52
					v26.05l30.22-26.05h105.1c14.67,0,26.56-11.89,26.56-26.56v-109.3C1467.07,2588.98,1455.18,2577.09,1440.51,2577.09z"/>
			</g>
			<g>
				<g>
					<g>
						<path class="st2" d="M1314.91,2627.22v56.04c0,1.21,0.98,2.18,2.18,2.18h117.5c1.22,0,2.2-1,2.18-2.21l-0.27-20.52
							c-0.01-0.46-0.16-0.91-0.43-1.28l-16.85-22.53c-0.41-0.55-1.05-0.87-1.73-0.88l-19.42-0.15c-1.2-0.01-2.17-0.98-2.17-2.18
							v-8.47c0-1.21-0.98-2.18-2.18-2.18h-76.63C1315.88,2625.04,1314.91,2626.02,1314.91,2627.22z"/>
					</g>
				</g>
				<g>
					<g>
						<path class="st5" d="M1401.36,2642.77v17.98c0,0.7,0.57,1.26,1.27,1.25l25.94-0.46c0.99-0.02,1.57-1.13,1.01-1.95
							l-12.13-17.89c-0.24-0.35-0.64-0.56-1.07-0.55l-13.81,0.37C1401.9,2641.53,1401.36,2642.09,1401.36,2642.77z"/>
					</g>
				</g>
				<g>
					<g>
						<rect x="1312.54" y="2687.15" class="st2" width="126.57" height="3.9"/>
					</g>
				</g>
				<g>
					<g>
						<path class="st5" d="M1354.4,2688.65c0,6.91-5.6,12.52-12.52,12.52s-12.52-5.61-12.52-12.52c0-6.91,5.6-12.52,12.52-12.52
							S1354.4,2681.73,1354.4,2688.65z"/>
					</g>
				</g>
				<g>
					<g>
						<path class="st2" d="M1349.25,2688.65c0,4.07-3.3,7.37-7.37,7.37c-4.07,0-7.37-3.3-7.37-7.37c0-4.07,3.3-7.37,7.37-7.37
							C1345.95,2681.28,1349.25,2684.58,1349.25,2688.65z"/>
					</g>
				</g>
				<g>
					<g>
						<g>
							<path class="st5" d="M1395.8,2685.45c-0.32,0-0.57-13.52-0.57-30.2c0-16.68,0.26-30.21,0.57-30.21
								c0.32,0,0.57,13.52,0.57,30.21C1396.37,2671.92,1396.12,2685.45,1395.8,2685.45z"/>
						</g>
					</g>
				</g>
				<g>
					<g>
						<g>
							<path class="st5" d="M1422.62,2688.65c0,6.91-5.6,12.52-12.52,12.52s-12.52-5.61-12.52-12.52c0-6.91,5.6-12.52,12.52-12.52
								S1422.62,2681.73,1422.62,2688.65z"/>
						</g>
					</g>
					<g>
						<g>
							<path class="st2" d="M1417.47,2688.65c0,4.07-3.3,7.37-7.37,7.37c-4.07,0-7.37-3.3-7.37-7.37c0-4.07,3.3-7.37,7.37-7.37
								C1414.17,2681.28,1417.47,2684.58,1417.47,2688.65z"/>
						</g>
					</g>
				</g>
				<g>
					<g>
						<g>
							<path class="st5" d="M1410.14,2665.55c0,0.32-1.79,0.57-4,0.57c-2.21,0-4-0.26-4-0.57c0-0.32,1.79-0.57,4-0.57
								C1408.34,2664.98,1410.14,2665.23,1410.14,2665.55z"/>
						</g>
					</g>
				</g>
			</g>
		</g>
	</g>
</g>
<g>
	<g>
		<g>
			<g>
				<path class="st9" d="M2611.87,1861.16c0,0,79.62,13.45,86.03,15.16c6.41,1.71,31.62,13.68,32.91,21.37
					c1.28,7.69,0,30.34,0,30.34s-4.55,3.72-7.4-3.7c-2.85-7.41-2.43-22.07-2.43-22.07l-14.1-5.43l7.69,13.68l1.28,32.05
					c0,0-9.85-0.9-11.76-8.57c-1.91-7.67-1.88-16.22-1.88-16.22l-10.29-8.71l7.69,10.42l2.6,23.08c0,0-7.51,2.43-9.87-2.69
					c-2.36-5.12-2.56-20.38-2.56-20.38l-29.01-10.14l-19.22,10.7l-35.89-20.3L2611.87,1861.16z"/>
			</g>
		</g>
		<g>
			<g>
				<g>
					<g>
						<path class="st5" d="M2333.19,1664.4c0.36,1.58,95.93,133.12,95.93,133.12l191.96,59.7l-8.74,72.1l-235.27-47.38l-83.5-95.82
							L2333.19,1664.4z"/>
					</g>
				</g>
				<g class="st10">
					<g>
						<path d="M2333.19,1664.4c0.36,1.58,95.93,133.12,95.93,133.12l191.96,59.7l-8.74,72.1l-235.27-47.38l-83.5-95.82
							L2333.19,1664.4z"/>
					</g>
				</g>
			</g>
		</g>
	</g>
	<g>
		<g>
			<g>
				<g>
					<g>
						<path class="st0" d="M1998.82,1921.91h-392.24c-8.31,0-15.04-6.73-15.04-15.04v-46.36c0-8.31,6.73-15.04,15.04-15.04h392.24
							c8.31,0,15.04,6.73,15.04,15.04v46.36C2013.86,1915.18,2007.13,1921.91,1998.82,1921.91z"/>
					</g>
				</g>
				<g>
					<g>
						<g>
							<path class="st4" d="M1998.82,1921.91c0-0.09,0.86-0.03,2.47-0.35c1.59-0.33,4.04-0.99,6.54-2.99
								c2.47-1.93,5.01-5.34,5.54-9.97c0.18-4.63-0.02-10.16-0.01-16.29c-0.03-6.16-0.07-12.99-0.11-20.46
								c-0.02-3.74-0.05-7.63-0.07-11.68c-0.08-3.88-1.88-7.85-5.07-10.55c-1.57-1.36-3.5-2.36-5.57-2.9
								c-2.06-0.59-4.27-0.49-6.64-0.48c-4.66,0.02-9.47,0.03-14.42,0.05c-9.91,0.03-20.37,0.06-31.36,0.09
								c-88.01,0.1-209.42,0.23-343.51,0.38c-3.86-0.03-7.63,1.67-10.19,4.51c-2.62,2.86-3.83,6.59-3.6,10.61
								c0,8.28,0,16.51-0.01,24.68c0,4.08,0,8.15,0,12.21l0,6.07c-0.02,2.09-0.01,3.87,0.49,5.66c0.95,3.56,3.4,6.66,6.6,8.43
								c1.59,0.89,3.36,1.45,5.17,1.65c1.74,0.16,3.87,0.06,5.81,0.09c31.63,0.03,62.14,0.05,91.21,0.07
								c58.11,0.1,110.44,0.2,154.44,0.27c43.88,0.17,79.42,0.31,104.12,0.41c12.2,0.1,21.72,0.19,28.31,0.24
								c3.15,0.05,5.6,0.1,7.36,0.13C1997.97,1921.83,1998.82,1921.91,1998.82,1921.91s-0.85,0.09-2.51,0.13
								c-1.76,0.03-4.21,0.07-7.36,0.13c-6.59,0.06-16.1,0.14-28.31,0.24c-24.69,0.1-60.24,0.24-104.12,0.41
								c-43.99,0.08-96.33,0.17-154.44,0.28c-29.07,0.02-59.58,0.05-91.21,0.07c-2.02-0.03-3.85,0.08-6.08-0.1
								c-2.14-0.23-4.24-0.89-6.13-1.94c-3.79-2.09-6.69-5.76-7.82-9.98c-0.61-2.09-0.61-4.39-0.59-6.33l0-6.07
								c0-4.05,0-8.12,0-12.21c0-8.17,0-16.4,0-24.68c-0.29-4.25,1.16-9.06,4.26-12.34c3.02-3.36,7.53-5.39,12.09-5.35
								c134.09,0.15,255.5,0.28,343.51,0.38c10.99,0.03,21.45,0.06,31.36,0.09c4.95,0.02,9.76,0.03,14.42,0.05
								c2.28,0.01,4.72-0.09,7.03,0.58c2.29,0.62,4.4,1.74,6.12,3.25c3.48,2.99,5.42,7.37,5.46,11.61
								c-0.01,4.06-0.02,7.97-0.04,11.71c-0.04,7.47-0.08,14.3-0.11,20.46c-0.09,6.16,0.04,11.57-0.23,16.38
								c-0.64,4.87-3.37,8.36-5.98,10.29c-2.64,2-5.18,2.59-6.81,2.84C1999.68,1922.06,1998.82,1921.91,1998.82,1921.91z"/>
						</g>
					</g>
				</g>
			</g>
			<g>
				<g>
					<g>
						<g>
							<g>
								<g>
									<g>
										
											<ellipse transform="matrix(0.9988 -0.048 0.048 0.9988 -125.8597 149.6022)" class="st4" cx="3054.12" cy="2697.16" rx="201.78" ry="201.78"/>
									</g>
								</g>
							</g>
						</g>
					</g>
				</g>
				<g>
					<g>
						<g>
							<g>
								<g>
									<g>
										<path class="st4" d="M2852.4,2693.73c0,0.17-0.03,0.35-0.04,0.52c-1.61,111.43,87.42,203.06,198.85,204.67
											c111.43,1.61,203.06-87.42,204.67-198.85c0-0.18-0.02-0.35-0.02-0.52L2852.4,2693.73z"/>
									</g>
								</g>
							</g>
						</g>
					</g>
				</g>
				<g>
					<g>
						<g>
							<g>
								<g>
									<g>
										<path class="st2" d="M2912.48,2695.12c-1.13,78.23,61.37,142.56,139.6,143.69c78.23,1.13,142.56-61.37,143.69-139.6
											c1.13-78.23-61.37-142.56-139.61-143.69C2977.93,2554.39,2913.6,2616.89,2912.48,2695.12z"/>
									</g>
								</g>
							</g>
						</g>
					</g>
				</g>
				<g>
					<g>
						<g>
							<g>
								<g>
									<g>
										<path class="st3" d="M3056.16,2555.52c-78.23-1.13-142.56,61.37-143.69,139.6l283.29,4.09
											C3196.9,2620.98,3134.4,2556.64,3056.16,2555.52z"/>
									</g>
								</g>
							</g>
						</g>
					</g>
				</g>
				<g>
					<g>
						<g>
							<g>
								<g>
									<g>
										<path class="st4" d="M2967.84,2695.92c-0.69,47.65,37.39,86.84,85.04,87.53c47.65,0.69,86.84-37.39,87.53-85.04
											c0.69-47.66-37.39-86.84-85.04-87.53C3007.71,2610.19,2968.53,2648.26,2967.84,2695.92z"/>
									</g>
								</g>
							</g>
						</g>
					</g>
				</g>
			</g>
			<g>
				<g>
					<path class="st5" d="M2958.34,2401.3c0,0,206.59-62.49,292.03,161.96l-432.31,133.9L2958.34,2401.3z"/>
				</g>
			</g>
			<g>
				<g>
					<g>
						<g>
							<g>
								<g>
									<g>
										
											<ellipse transform="matrix(0.9988 -0.048 0.048 0.9988 -127.2928 89.8833)" class="st4" cx="1809.13" cy="2697.16" rx="201.78" ry="201.78"/>
									</g>
								</g>
							</g>
						</g>
					</g>
				</g>
				<g>
					<g>
						<g>
							<g>
								<g>
									<g>
										<path class="st4" d="M1607.41,2693.73c0,0.17-0.03,0.35-0.04,0.52c-1.61,111.43,87.42,203.06,198.85,204.67
											c111.43,1.61,203.06-87.42,204.67-198.85c0-0.18-0.02-0.35-0.02-0.52L1607.41,2693.73z"/>
									</g>
								</g>
							</g>
						</g>
					</g>
				</g>
				<g>
					<g>
						<g>
							<g>
								<g>
									<g>
										<path class="st2" d="M1667.48,2695.12c-1.13,78.23,61.37,142.56,139.6,143.69c78.23,1.13,142.56-61.37,143.69-139.6
											c1.13-78.23-61.37-142.56-139.61-143.69C1732.94,2554.39,1668.61,2616.89,1667.48,2695.12z"/>
									</g>
								</g>
							</g>
						</g>
					</g>
				</g>
				<g>
					<g>
						<g>
							<g>
								<g>
									<g>
										<path class="st3" d="M1811.17,2555.52c-78.23-1.13-142.56,61.37-143.69,139.6l283.29,4.09
											C1951.9,2620.98,1889.4,2556.64,1811.17,2555.52z"/>
									</g>
								</g>
							</g>
						</g>
					</g>
				</g>
				<g>
					<g>
						<g>
							<g>
								<g>
									<g>
										<path class="st4" d="M1722.84,2695.92c-0.69,47.65,37.39,86.84,85.04,87.53c47.65,0.69,86.84-37.39,87.53-85.04
											c0.69-47.66-37.39-86.84-85.04-87.53C1762.72,2610.19,1723.53,2648.26,1722.84,2695.92z"/>
									</g>
								</g>
							</g>
						</g>
					</g>
				</g>
			</g>
			<g>
				<g>
					<path class="st11" d="M2096.13,2616.16c-1.12,0.57-106.19-16.24-106.19-16.24l0,0c-11.51,15-29.04,24.18-47.93,25.09
						c-45.38,2.17-89.76,4.17-128.19,5.89c-35.85,1.6-63.62,31.92-62.11,67.77l0,0.05c1.43,33.89,28.63,61.01,62.52,62.34
						l223.45,8.8c36.74,1.45,85.59-20.89,108.53-49.62l0,0L2096.13,2616.16z"/>
				</g>
			</g>
			<g>
				<g>
					<path class="st5" d="M1547.17,2526.86c0,0-9.61-196.64,175.19-237.61v-25.21h647.4v60.12c0,0-95.02,114.42-63.99,209.44
						c31.03,95.02,40.72,104.72,40.72,104.72h368.46c0,0,44.6-56.24,46.54-139.63c1.94-83.39-32.71-225.98-58.57-317.12
						c-23.52-82.88-38.39-152.17-38.39-152.17l110.54-36.85c0,0,204.53,267.43,212.89,282.47c8.35,15.04,36.76,50.13,30.08,126.99
						c-6.68,76.86-190.49,314.13-238.94,340.87c-48.46,26.73-91.9,28.41-135.34,35.09c-37.71,5.8-316.65,1.96-389.61,0.85
						c-25.34-0.39-50.37-6.86-72.04-20c-21.82-13.23-38.23-35.12-56.34-71.08l-38.43-75.19L1547.17,2526.86z"/>
				</g>
			</g>
			<g>
				<g>
					<path class="st11" d="M1596.72,2513.18l-81.55,127.72c-10.44,16.35,6.45,36.93,24.25,29.21c8.63-3.74,17.93-9.59,27.35-18.56
						c37.3-35.48,103.77-128.94,103.77-128.94L1596.72,2513.18z"/>
				</g>
			</g>
			<g>
				<g>
					<g>
						<path class="st4" d="M2181.45,2536.19c-0.04-0.02,0.12-0.65,0.48-1.86c0.41-1.33,0.95-3.1,1.64-5.36
							c1.39-4.72,3.06-11.81,4.27-21.07c2.08-18.38,1.13-46.47-12.62-77.08c-6.7-15.27-16.63-30.86-30.04-45.18
							c-13.48-14.21-30.13-27.34-49.55-37.8c-19.37-10.53-41.23-18.81-64.67-24.07c-23.44-5.26-48.36-7.63-73.86-7.63
							c-25.52-0.01-50.41,2.26-74.28,5.45c-23.88,3.22-46.8,7.18-68.38,12.1c-43.18,9.71-80.75,24.07-109.81,40.63
							c-29.16,16.45-49.84,34.4-62.75,47.88c-6.51,6.72-11.18,12.31-14.3,16.12c-1.48,1.85-2.64,3.3-3.5,4.38
							c-0.8,0.98-1.23,1.47-1.27,1.44c0,0,5.51-8.88,18.35-22.64c12.74-13.75,33.36-32.02,62.58-48.77
							c29.12-16.86,66.86-31.49,110.18-41.36c21.65-5.01,44.63-9.02,68.57-12.29c23.94-3.23,48.94-5.53,74.62-5.52
							c25.65,0,50.76,2.41,74.41,7.75c23.64,5.34,45.71,13.74,65.25,24.45c19.6,10.63,36.4,23.98,49.97,38.43
							c13.51,14.55,23.48,30.42,30.15,45.9c13.69,31.05,14.35,59.45,11.95,77.93c-1.37,9.32-3.21,16.41-4.77,21.1
							c-0.8,2.23-1.42,3.99-1.89,5.3C2181.73,2535.6,2181.49,2536.2,2181.45,2536.19z"/>
					</g>
				</g>
			</g>
			<g>
				<g>
					<g>
						<path class="st0" d="M2144.15,2492.04c-0.28-0.11,1.08-3.11,2.44-8.75c1.52-5.62,2.17-14.17,0.74-24.45
							c-1.41-10.29-5.37-22.23-12.03-34.28c-3.26-6.06-7.27-12.1-11.93-17.95c-4.59-5.91-9.99-11.53-16.04-16.62
							c-12.17-10.21-25.73-17.41-38.5-22.52c-12.87-4.97-25.01-7.95-35.33-9.65c-10.32-1.72-18.78-2.45-24.63-2.8
							c-5.85-0.36-9.1-0.5-9.1-0.7c0-0.09,0.81-0.16,2.36-0.22c1.55-0.03,3.84-0.16,6.78-0.08c5.89,0.05,14.43,0.5,24.88,2.01
							c10.45,1.48,22.79,4.31,35.9,9.24c13.03,5.07,26.85,12.32,39.3,22.76c6.21,5.22,11.71,10.98,16.36,17.02
							c4.73,5.99,8.77,12.18,12.04,18.38c6.67,12.34,10.53,24.6,11.75,35.17c1.24,10.55,0.28,19.3-1.57,24.94
							c-0.58,2.92-1.84,4.93-2.35,6.39C2144.59,2491.35,2144.23,2492.07,2144.15,2492.04z"/>
					</g>
				</g>
			</g>
			<g class="st8">
				<g>
					<g>
						<path d="M2017.37,2319.76c36.18,6.9,67.81,19.88,97.49,39.69c29.68,19.81,52.39,47.85,65.31,81.12s10.98,77.31-2.61,104.86
							l45.74,3.79c15.4-51.35-1.37-114.39-38.37-154.59C2141.5,2347.44,2081.78,2319.76,2017.37,2319.76"/>
					</g>
				</g>
			</g>
			<g>
				<g>
					<path class="st11" d="M2036.55,2264.04h-467.7c-4.74,0-8.58-3.84-8.58-8.58v-328.83c0-4.74,3.84-8.58,8.58-8.58h467.7
						c4.74,0,8.58,3.84,8.58,8.58v328.83C2045.13,2260.2,2041.29,2264.04,2036.55,2264.04z"/>
				</g>
			</g>
			<g>
				<g>
					<g>
						<path class="st4" d="M2045.13,1995.26c0,0.71-109.01,1.29-243.45,1.29c-134.49,0-243.47-0.57-243.47-1.29
							c0-0.71,108.99-1.28,243.47-1.28C1936.12,1993.98,2045.13,1994.55,2045.13,1995.26z"/>
					</g>
				</g>
			</g>
			<g>
				<g>
					<g>
						<path class="st4" d="M2369.44,2286.95c0,0.71-145.5,1.29-324.95,1.29c-179.51,0-324.98-0.58-324.98-1.29
							c0-0.71,145.47-1.28,324.98-1.28C2223.94,2285.66,2369.44,2286.24,2369.44,2286.95z"/>
					</g>
				</g>
			</g>
			<g>
				<g>
					<path class="st11" d="M2369.76,2264.04c0,0,10.68-12.74,11.7-29c1.02-16.26-6.39-36.59-23.89-36.59h-223.55
						c-36.22,0-65.59,29.37-65.59,65.59l0,0H2369.76z"/>
				</g>
			</g>
			<g>
				<g>
					<path class="st5" d="M2664.53,2029.39l-38.88-81.08c-10.63-23.05-2.15-50.41,19.65-63.42l116.25-69.34
						c6.08-3.63,13.03-5.54,20.11-5.54h25.12l10.06,163.88l-38.76,14.82l24.53,39.89L2664.53,2029.39z"/>
				</g>
			</g>
			<g>
				<g>
					<path class="st1" d="M2807.14,1815.96c0,0,39.77,9.12,44.78,70.44c5.01,61.32-35.08,80.4-35.08,80.4L2807.14,1815.96z"/>
				</g>
			</g>
			<g>
				<g>
					<path class="st4" d="M2678.08,1916.55c0,0-80.41,38.11-90.22,44.36c-6.8,4.34-12.65,11.94-7.31,25.3
						c9.11,22.78,46.71,1.35,46.71,1.35l74.83-37.41c0,0,28.78-13.58,18.16-30.58C2708.34,1900.54,2678.08,1916.55,2678.08,1916.55z
						"/>
				</g>
			</g>
			<g>
				<g>
					<path class="st9" d="M2564.29,1902.65c0,0,75.52,12.95,81.93,14.66c6.41,1.71,31.62,13.68,32.91,21.37
						c1.28,7.69,0,30.34,0,30.34s-4.55,3.72-7.4-3.7c-2.85-7.41-2.42-22.07-2.42-22.07l-14.1-5.43l7.69,13.68l1.28,32.05
						c0,0-9.85-0.9-11.76-8.57c-1.91-7.67-1.88-16.22-1.88-16.22l-10.29-8.71l7.69,10.42l2.6,23.08c0,0-7.51,2.43-9.87-2.69
						c-2.36-5.12-2.56-20.38-2.56-20.38l-29.01-10.14l-19.22,10.7l-30.21-16.55L2564.29,1902.65z"/>
				</g>
			</g>
			<g>
				<g>
					<path class="st4" d="M2681.92,1797.46c0,30.57-14.06,55.36-31.4,55.36c-17.34,0-31.4-24.78-31.4-55.36
						c0-30.57,14.06-55.36,31.4-55.36C2667.86,1742.11,2681.92,1766.89,2681.92,1797.46z"/>
				</g>
			</g>
			<g>
				<g>
					<path class="st4" d="M2655.68,1835.53l17.25,59.77c7.7-3.91,9.31-11.58,8.03-17.65c-4.33-20.47-6.77-35.05-11.52-52.98
						C2668.85,1822.85,2655.68,1835.53,2655.68,1835.53"/>
				</g>
			</g>
			<g class="st8">
				<g>
					<path d="M2314.28,2559.14c-1.71-4.92-3.45-9.97-5.09-15.14c-1.54-4.82-3.34-9.82-4.66-14.62c-2.36-8.58-3.73-17.42-4.31-22.53
						c-29.11,118.52,15.33,201.98,91.65,207.85c111.5,8.57,247.44,14.81,302.43,0.37c100.23-26.31,137-109.87,145.77-123.65
						c8.77-13.78,88.5-159.49,39.64-299.81c-48.86-140.32-134.01-289.28-134.01-289.29l-81.18,27.06c0,0,14.87,69.3,38.39,152.17
						c25.86,91.14,60.51,233.74,58.57,317.12c-1.94,83.39-46.54,139.63-46.54,139.63h-368.46
						C2346.49,2638.32,2338.59,2630.4,2314.28,2559.14"/>
				</g>
			</g>
			<g>
				<g>
					<path class="st5" d="M1532.44,2496.02l2.6-28.11l672.53,77.48c37.95,4.45,64.34,39.93,57.68,77.56l-3.02,17.05l-696.05-101.15
						C1545.33,2535.82,1530.5,2517,1532.44,2496.02z"/>
				</g>
			</g>
			<g class="st7">
				<g>
					<path d="M1532.44,2496.02l2.6-28.11l672.53,77.48c37.95,4.45,64.34,39.93,57.68,77.56l-3.02,17.05l-696.05-101.15
						C1545.33,2535.82,1530.5,2517,1532.44,2496.02z"/>
				</g>
			</g>
			<g class="st12">
				<g>
					<g>
						<path d="M2840.07,2684.17c0,0,148.05-162.83,178.57-290.86c10.25-0.1,34.16,0.94,45.86,3.4
							C3064.5,2396.71,2976.95,2634.69,2840.07,2684.17z"/>
					</g>
				</g>
			</g>
			<g>
				<g>
					<g>
						<path class="st4" d="M3016.5,2335.92c0.09-0.01,0.36,1.4,0.81,4.11c0.39,2.72,1.19,6.71,1.69,11.91
							c0.96,10.39,1.59,25.64-1.15,44.2c-2.66,18.54-9.01,40.17-19.53,62.57c-10.29,22.53-24.45,45.77-39.2,70.07
							c-29.66,48.79-62.66,88.69-86.66,117.19c-12.06,14.23-22,25.58-28.91,33.39c-3.36,3.75-6.03,6.73-8.01,8.94
							c-1.85,2.03-2.86,3.06-2.93,3c-0.07-0.06,0.81-1.21,2.53-3.34c1.89-2.29,4.44-5.38,7.65-9.26
							c6.84-8.2,16.46-19.73,28.28-33.91c23.62-28.77,56.32-68.77,85.85-117.35c14.75-24.31,28.92-47.43,39.25-69.73
							c10.56-22.19,17.01-43.52,19.88-61.85c2.94-18.34,2.6-33.48,1.95-43.84c-0.34-5.19-0.98-9.19-1.2-11.92
							C3016.51,2337.38,3016.41,2335.94,3016.5,2335.92z"/>
					</g>
				</g>
			</g>
			<g>
				<g>
					<g>
						<path class="st4" d="M2760.57,2682.98c-0.5,0.51-11.11-9.08-23.71-21.42c-12.6-12.34-22.41-22.75-21.91-23.25
							c0.5-0.51,11.11,9.08,23.71,21.42C2751.25,2672.07,2761.07,2682.48,2760.57,2682.98z"/>
					</g>
				</g>
			</g>
			<g>
				<g>
					<g>
						<path class="st4" d="M2321.2,2677.97c-0.61-0.27,3.45-10.19,10.86-21.07c7.37-10.91,15.09-18.35,15.57-17.88
							c0.56,0.5-6.2,8.6-13.44,19.32C2326.9,2669.03,2321.87,2678.3,2321.2,2677.97z"/>
					</g>
				</g>
			</g>
			<g>
				<g>
					<g>
						<path class="st4" d="M2036.75,2771.98c-0.6-0.5,10.62-7.65,20.2-25.65c4.77-8.89,8.71-20.49,9.89-33.78
							c1.22-13.24-0.7-28.21-7.18-42.13c-6.74-13.81-17.17-24.73-28.23-32.1c-11.08-7.44-22.57-11.68-32.48-13.57
							c-20.02-3.89-32.63,0.34-32.64-0.45c-0.02-0.09,0.74-0.31,2.2-0.66c1.48-0.28,3.62-1,6.49-1.26
							c5.67-0.88,14.11-1.15,24.29,0.58c10.17,1.69,22.01,5.85,33.46,13.38c11.43,7.47,22.26,18.67,29.23,32.97
							c6.72,14.41,8.61,29.88,7.22,43.46c-1.35,13.64-5.57,25.46-10.65,34.42c-5.06,9-10.58,15.39-14.83,19.25
							c-2.01,2.06-3.91,3.28-5.06,4.25C2037.45,2771.61,2036.8,2772.05,2036.75,2771.98z"/>
					</g>
				</g>
			</g>
			<g>
				<g>
					<g>
						<path class="st4" d="M1791.17,2720.43c-0.71,0.03-1.79-10.59-2.42-23.72c-0.63-13.14-0.56-23.81,0.15-23.84
							c0.71-0.03,1.79,10.58,2.42,23.72C1791.94,2709.72,1791.87,2720.4,1791.17,2720.43z"/>
					</g>
				</g>
			</g>
			<g>
				<g>
					<g>
						<path class="st4" d="M1809,2720.47c-0.7,0.09-2.64-10.5-4.32-23.66c-1.68-13.16-2.47-23.9-1.77-23.99
							c0.7-0.09,2.64,10.5,4.32,23.66C1808.91,2709.64,1809.71,2720.38,1809,2720.47z"/>
					</g>
				</g>
			</g>
			<g>
				<g>
					<g>
						<path class="st4" d="M2086.35,2264.04c0,0.71-81.77,1.29-182.61,1.29c-100.88,0-182.63-0.58-182.63-1.29
							c0-0.71,81.75-1.28,182.63-1.28C2004.59,2262.76,2086.35,2263.33,2086.35,2264.04z"/>
					</g>
				</g>
			</g>
			<g>
				<g>
					<g>
						<path class="st4" d="M1821.57,2263.79c-0.71,0-1.29-93.65-1.29-209.15c0-115.54,0.58-209.17,1.29-209.17
							c0.71,0,1.28,93.63,1.28,209.17C1822.85,2170.14,1822.28,2263.79,1821.57,2263.79z"/>
					</g>
				</g>
			</g>
			<g>
				<g>
					<g>
						<path class="st4" d="M1771.5,2263.46c-0.71-0.03,2.79-93.63,7.82-209.04c5.03-115.45,9.68-208.98,10.39-208.95
							c0.71,0.03-2.79,93.61-7.82,209.06C1776.86,2169.94,1772.21,2263.49,1771.5,2263.46z"/>
					</g>
				</g>
			</g>
		</g>
		<g>
			<g>
				<g>
					<g>
						<path class="st11" d="M1658.24,2834.15c-0.07,0.06-0.81-0.69-2.17-2.17c-1.32-1.51-3.42-3.63-5.76-6.65
							c-4.88-5.88-11.42-14.87-18.21-26.76c-13.64-23.55-27.17-60.33-27-102.44c0.18-42.12,14.01-78.8,27.85-102.23
							c6.89-11.83,13.5-20.76,18.43-26.6c2.37-3,4.48-5.1,5.81-6.6c1.37-1.47,2.12-2.22,2.18-2.16c0.07,0.06-0.55,0.92-1.79,2.5
							c-1.2,1.61-3.19,3.8-5.42,6.88c-4.66,6-11,15.03-17.63,26.88c-13.32,23.47-26.68,59.77-26.86,101.34
							c-0.16,41.55,12.89,77.97,26.02,101.55c6.53,11.9,12.8,20.98,17.41,27.02c2.21,3.1,4.18,5.31,5.37,6.93
							C1657.7,2833.23,1658.31,2834.09,1658.24,2834.15z"/>
					</g>
				</g>
			</g>
		</g>
	</g>
	<g>
		<g>
			<g>
				<g>
					<g>
						<g>
							<g>
								<g>
									<path class="st11" d="M2365.21,2458.16l-1.54,2.9l-29.7,55.92l-41.65,40.11l83.24,110.81l69.36-11.5
										c0,0-7.79-15.83-42.6-18.89l-13.31-66.23l48.91-75.8"/>
								</g>
							</g>
						</g>
						<g>
							<g>
								<g>
									<polygon class="st3" points="2292.32,2557.09 2375.55,2667.9 2444.92,2656.4 2435.37,2647.27 2378.45,2653.53 
										2301.18,2548.56 									"/>
								</g>
							</g>
						</g>
					</g>
					<g>
						<g>
							<g>
								<g>
									<path class="st4" d="M2396.8,2607.06c-0.4,0.79-4.77-0.81-10.11,0.23c-5.37,0.89-8.9,3.93-9.55,3.32
										c-0.74-0.42,2.48-5.22,9-6.37C2392.65,2603.04,2397.35,2606.42,2396.8,2607.06z"/>
								</g>
							</g>
						</g>
					</g>
					<g>
						<g>
							<g>
								<g>
									<path class="st4" d="M2392.94,2590.73c-0.61,0.6-4.38-2.97-10.09-3.13c-5.71-0.22-9.71,3.11-10.28,2.46
										c-0.29-0.27,0.32-1.57,2.09-2.95c1.73-1.38,4.76-2.71,8.29-2.6c3.53,0.12,6.46,1.65,8.1,3.14
										C2392.72,2589.15,2393.24,2590.48,2392.94,2590.73z"/>
								</g>
							</g>
						</g>
					</g>
					<g>
						<g>
							<g>
								<g>
									<path class="st4" d="M2389.86,2569.44c-0.69,0.51-3.73-3.11-8.84-3.97c-5.1-0.93-9.18,1.43-9.66,0.71
										c-0.24-0.32,0.47-1.43,2.28-2.47c1.77-1.03,4.71-1.85,7.93-1.29c3.22,0.57,5.7,2.34,7.01,3.92
										C2389.9,2567.93,2390.2,2569.22,2389.86,2569.44z"/>
								</g>
							</g>
						</g>
					</g>
					<g>
						<g>
							<g>
								<g>
									<path class="st4" d="M2405.69,2549.9c-0.78,0.43-3.38-3.19-8.15-5.26c-4.71-2.21-9.15-1.77-9.34-2.63
										c-0.37-0.76,4.81-2.84,10.61-0.18C2404.64,2544.42,2406.5,2549.67,2405.69,2549.9z"/>
								</g>
							</g>
						</g>
					</g>
					<g>
						<g>
							<g>
								<g>
									<path class="st4" d="M2412.37,2534.16c-0.31,0.29-3.06-2.12-7.26-6.25c-2.38-2.42-4.79-4.86-7.25-7.36
										c-1.27-1.46-2.91-2.64-4.15-5.07c-0.58-1.23-0.8-2.77-0.28-4.28c0.46-1.59,2.26-2.84,3.82-2.88
										c3.1-0.06,5.05,1.21,7.04,2.28c1.94,1.18,3.61,2.6,5.01,4.11c2.8,3.05,4.45,6.45,5.3,9.41c1.7,6.02,0.27,9.85,0,9.73
										c-0.56-0.03-0.01-3.76-2.08-9.03c-1.03-2.6-2.71-5.54-5.29-8.14c-1.29-1.28-2.79-2.48-4.49-3.47
										c-1.65-0.94-3.77-1.92-5.22-1.81c-0.69,0.09-0.99,0.32-1.21,0.85c-0.21,0.56-0.17,1.32,0.14,1.99
										c0.62,1.42,2.24,2.91,3.48,4.38c2.3,2.65,4.54,5.24,6.76,7.81C2410.5,2530.93,2412.68,2533.87,2412.37,2534.16z"/>
								</g>
							</g>
						</g>
					</g>
					<g>
						<g>
							<g>
								<g>
									<path class="st4" d="M2415.19,2535.81c-0.33,0.03-0.67-3.66,2.39-8.45c3-4.55,10.31-10.1,19.94-7.13
										c0.73,0.44,1.39,1.34,1.49,2.3c0.12,0.97-0.17,1.75-0.47,2.34c-0.64,1.22-1.46,1.9-2.12,2.6c-1.42,1.4-2.92,2.6-4.44,3.62
										c-3.02,2.04-6.07,3.32-8.7,4.06c-5.29,1.48-8.72,0.97-8.71,0.62c-0.04-0.49,3.25-0.8,8-2.69c2.37-0.95,5.08-2.33,7.76-4.32
										c1.34-0.99,2.67-2.13,3.93-3.43c0.64-0.68,1.28-1.31,1.53-1.86c0.24-0.66,0.18-0.47,0.04-0.64
										c-0.27-0.22-1.24-0.35-2.13-0.41c-0.89-0.06-1.78-0.05-2.64,0.03c-1.73,0.15-3.38,0.57-4.87,1.17
										c-3,1.19-5.27,3.13-6.85,5.04C2416.19,2532.55,2415.69,2535.92,2415.19,2535.81z"/>
								</g>
							</g>
						</g>
					</g>
					<g>
						<g>
							<g>
								<path class="st3" d="M2347.29,2545.78c0.76,4.54-2.31,8.84-6.85,9.6c-4.54,0.76-8.84-2.31-9.6-6.85
									c-0.76-4.54,2.31-8.84,6.85-9.6C2342.24,2538.17,2346.54,2541.24,2347.29,2545.78z"/>
							</g>
						</g>
					</g>
				</g>
			</g>
			<g>
				<g>
					<g>
						<g>
							<g>
								<path class="st11" d="M2617.87,2511.47l22.26,144.51l179.94-26.77c-3.61-17.03-101.83-37.69-101.83-37.69l-10.46-93.18
									L2617.87,2511.47z"/>
							</g>
						</g>
					</g>
					<g>
						<g>
							<g>
								<g>
									<path class="st3" d="M2661.43,2592.01c-3.34,1.47-5.16,5.74-3.83,9.14c1.33,3.4,5.66,5.29,9.03,3.88
										c3.37-1.41,5.71-6.47,4.01-9.7c-1.7-3.23-6.91-5.17-9.84-2.99"/>
								</g>
							</g>
						</g>
					</g>
					<g>
						<g>
							<g>
								<path class="st3" d="M2640.13,2655.99l-1.67-14.65l173.15-20.19c0,0,8.53,2.29,8.46,8.07L2640.13,2655.99z"/>
							</g>
						</g>
					</g>
					<g>
						<g>
							<g>
								<g>
									<path class="st4" d="M2721.01,2590.17c0.1,0.88-4.23,1.94-8.13,5.4c-3.99,3.37-5.66,7.5-6.52,7.28
										c-0.84-0.05-0.31-5.5,4.49-9.61C2715.62,2589.08,2721.08,2589.34,2721.01,2590.17z"/>
								</g>
							</g>
						</g>
					</g>
					<g>
						<g>
							<g>
								<g>
									<path class="st4" d="M2741.05,2595.17c0.33,0.82-3.26,2.88-5.69,7.04c-2.55,4.09-2.71,8.22-3.59,8.31
										c-0.81,0.26-2.18-4.8,0.94-9.91C2735.79,2595.47,2740.91,2594.34,2741.05,2595.17z"/>
								</g>
							</g>
						</g>
					</g>
					<g>
						<g>
							<g>
								<g>
									<path class="st4" d="M2755.13,2616.17c-0.77,0.31-2.65-3.9-1.11-9.05c1.5-5.16,5.37-7.67,5.85-7
										c0.6,0.65-1.68,3.63-2.88,7.87C2755.69,2612.21,2755.99,2615.95,2755.13,2616.17z"/>
								</g>
							</g>
						</g>
					</g>
					<g>
						<g>
							<g>
								<g>
									<path class="st4" d="M2716.27,2569.2c-0.25,0.86-4.46,0.24-9.38,1.32c-4.94,0.98-8.55,3.22-9.12,2.53
										c-0.6-0.56,2.69-4.37,8.49-5.56C2712.06,2566.27,2716.6,2568.45,2716.27,2569.2z"/>
								</g>
							</g>
						</g>
					</g>
					<g>
						<g>
							<g>
								<g>
									<path class="st4" d="M2708.81,2548.49c0.06,0.36-3.33,1.42-9.02,1.29c-2.83-0.07-6.22-0.49-9.86-1.49
										c-1.82-0.51-3.7-1.16-5.58-1.98c-0.91-0.41-1.97-0.8-3.04-1.71c-1.11-0.77-2.01-3.02-1.1-4.61
										c0.72-1.52,2.26-2.36,3.55-2.58c1.32-0.24,2.43-0.13,3.45-0.04c2.08,0.19,4.05,0.57,5.89,1.09
										c3.67,1.05,6.76,2.61,9.12,4.22c4.75,3.25,6.66,6.31,6.39,6.53c-0.35,0.35-2.8-2.1-7.52-4.66
										c-2.35-1.27-5.31-2.51-8.71-3.33c-1.7-0.4-3.52-0.69-5.41-0.83c-1.98-0.22-3.6,0.01-3.97,0.93
										c-0.13,0.35-0.13,0.48,0.35,0.98c0.49,0.45,1.34,0.84,2.23,1.25c1.75,0.8,3.48,1.47,5.17,2.01
										c3.37,1.09,6.53,1.71,9.21,2.04C2705.33,2548.28,2708.76,2548.01,2708.81,2548.49z"/>
								</g>
							</g>
						</g>
					</g>
					<g>
						<g>
							<g>
								<g>
									<path class="st4" d="M2707.86,2549.92c-0.29,0.18-2.5-2.71-3.67-8.35c-0.57-2.8-0.79-6.26-0.24-10.05
										c0.28-1.89,0.76-3.85,1.48-5.81c0.79-1.94,1.72-4.51,5.07-5.41c1.77-0.33,3.46,0.84,4.14,1.95
										c0.78,1.13,1.05,2.16,1.42,3.17c0.64,2.05,0.91,4.12,0.91,6.07c0,3.91-1.09,7.33-2.46,9.88c-2.82,5.19-6.33,6.78-6.45,6.5
										c-0.36-0.4,2.45-2.55,4.47-7.43c1-2.41,1.74-5.49,1.59-8.89c-0.07-1.69-0.36-3.46-0.94-5.18c-0.57-1.87-1.51-3.31-2.2-3
										c-0.9,0.12-2.2,1.78-2.71,3.42c-0.68,1.75-1.17,3.51-1.51,5.22c-0.64,3.42-0.67,6.61-0.41,9.25
										C2706.89,2546.57,2708.31,2549.72,2707.86,2549.92z"/>
								</g>
							</g>
						</g>
					</g>
				</g>
			</g>
			<g>
				<g>
					<polyline class="st4" points="2476.28,2172.05 2321.96,2508.3 2423.87,2569.49 2637.25,2164.89 					"/>
				</g>
			</g>
			<g>
				<g>
					<path class="st4" d="M2730.77,2577.17l-110.74,17.76l-66.27-395.46l-327.41,23.74c-8.68,0.53-17.43-0.2-25.81-2.5
						c-91.96-25.2-79.52-142.44-70.65-161.24l453.08-13.01c49.15-1.41,91.49,34.36,98.31,83.05L2730.77,2577.17z"/>
				</g>
			</g>
			<g>
				<g>
					<g>
						<g>
							<g>
								<g>
									<g>
										<g>
											<g>
												<g>
													<path class="st5" d="M2125.4,2078.07l1.64-167.2c0,0-21.58-108.71-27.97-151.44c-9.92-66.36-23.49-97.85,85.18-145.02
														l23.75-9.16l36.77,0.49c43.85,3.3,90.05,42.93,91.11,69.21l42.31,376.76L2125.4,2078.07z"/>
												</g>
											</g>
										</g>
									</g>
								</g>
							</g>
						</g>
					</g>
				</g>
			</g>
			<g>
				<g>
					<g>
						<g>
							<path class="st5" d="M2132.2,1653.28c0,0-30.67,66.02-24.54,126.16l114.32,109.75c25.64,28.54,57.69,40.67,98.68,43.15
								l236.6,25.86l6.57-61.9l-225.06-63.78c-8.95-1.65-13.42-11.01-20.29-16.98L2132.2,1653.28"/>
						</g>
					</g>
				</g>
			</g>
			<g>
				<g>
					<g>
						<path class="st4" d="M2113.72,1672.29c0,0,1.29-1.41,4.53-3.04c3.24-1.6,8.4-3.23,15.29-4.28c6.86-0.97,15.55-1.75,25.56,0.07
							c2.47,0.58,5.08,1.17,7.52,2.58c2.38,1.36,4.64,3.01,6.95,4.76c4.57,3.54,9.17,7.6,13.83,12.08
							c9.5,8.83,18.44,20.04,28.96,31.38c10.48,11.42,22.03,23.55,34.52,36.32c12.5,12.77,25.97,26.17,40.42,39.98
							c7.25,6.87,14.73,13.88,22.62,20.74c4.01,3.29,7.97,7.14,11.77,10.74c3.87,3.53,8.23,6.85,13.28,7.78l0.07,0.01l0.05,0.01
							c66.93,18.93,143.68,40.63,225.09,63.64l1.04,0.29l-0.11,1.08c-0.46,4.38-0.97,9.11-1.47,13.86
							c-1.75,16.46-3.48,32.74-5.1,48.04l-0.14,1.28l-1.28-0.14c-34.42-3.78-67.9-7.45-100.13-10.99
							c-16.12-1.78-31.92-3.52-47.38-5.22c-15.48-1.56-30.6-3.09-45.34-4.58c-14.73-1.61-29.07-3.31-42.94-5.34
							c-13.86-2.02-27.36-4.59-39.75-9.24c-12.43-4.53-23.52-11.03-33.5-17.99c-10.01-6.95-19.11-14.23-27.65-21.35
							c-33.81-28.86-58.63-54.64-75.86-72.22c-8.56-8.85-15.09-15.8-19.48-20.54c-2.13-2.34-3.77-4.13-4.95-5.43
							c-1.1-1.23-1.61-1.91-1.61-1.91s0.63,0.57,1.79,1.74c1.22,1.25,2.92,3,5.12,5.26c4.59,4.69,11.25,11.48,19.81,20.22
							c17.42,17.36,42.44,42.95,76.29,71.55c8.54,7.04,17.66,14.26,27.62,21.12c9.94,6.86,20.88,13.21,33.12,17.63
							c12.22,4.53,25.54,7.03,39.36,9c13.83,1.98,28.15,3.64,42.87,5.21c14.74,1.46,29.86,2.95,45.33,4.48
							c15.46,1.68,31.27,3.39,47.4,5.14c32.25,3.51,65.73,7.16,100.16,10.9l-1.41,1.14c1.62-15.3,3.35-31.58,5.09-48.04
							c0.5-4.75,1.01-9.48,1.47-13.86l0.93,1.37c-81.38-23.12-158.11-44.91-225.02-63.92l0.12,0.03
							c-5.85-1.11-10.45-4.76-14.41-8.37c-3.97-3.78-7.6-7.35-11.7-10.73c-7.92-6.93-15.39-13.97-22.63-20.88
							c-14.43-13.88-27.86-27.34-40.31-40.18c-12.45-12.84-23.96-25.04-34.38-36.54c-10.51-11.46-19.33-22.67-28.69-31.51
							c-4.6-4.49-9.14-8.56-13.63-12.1c-2.26-1.74-4.5-3.4-6.78-4.73c-2.24-1.33-4.78-1.94-7.17-2.53
							c-9.77-1.88-18.44-1.24-25.24-0.38c-6.85,0.93-11.98,2.43-15.23,3.9C2115.15,1671.08,2113.8,1672.4,2113.72,1672.29z"/>
					</g>
				</g>
			</g>
		</g>
		<g>
			<g>
				<g>
					<g>
						<g>
							<g>
								<g>
									<g>
										<g>
											<g>
												<g>
													<g>
														<g>
															<g>
																<g>
																	<g>
																		<g>
																			<g>
																				<g>
																					<path class="st9" d="M2172.77,1460.23l11.49,162.76c1.88,26.57,23.98,47.17,50.62,47.17l0,0
																						c29.33,0,52.56-24.8,50.63-54.06c-1.02-15.49-1.94-28.18-1.94-28.18s39.4-6.13,39.89-45.52
																						c0.28-22.75-3.64-74.39-7.01-113.94c-2.27-26.74-24.66-47.27-51.5-47.27h-23.8
																						C2200.17,1383.58,2169.24,1419.33,2172.77,1460.23z"/>
																				</g>
																			</g>
																		</g>
																	</g>
																</g>
															</g>
														</g>
													</g>
												</g>
											</g>
										</g>
										<g>
											<g>
												<g>
													<g>
														<g>
															<g>
																<g>
																	<g>
																		<g>
																			<g>
																				<g>
																					<path class="st13" d="M2283.63,1587.35c0,0-24.9,2.02-51.36-14.6c0,0,12.14,28.35,51.45,24.8L2283.63,1587.35z
																						"/>
																				</g>
																			</g>
																		</g>
																	</g>
																</g>
															</g>
														</g>
													</g>
												</g>
											</g>
										</g>
									</g>
								</g>
							</g>
							<g>
								<g>
									<g>
										<g>
											<g>
												<g>
													<g>
														<g>
															<g>
																<g>
																	<g>
																		<g>
																			<g>
																				<g>
																					<g>
																						<g>
																							<g>
																								<path class="st4" d="M2307.58,1479.08c0.11,2.97-2.32,5.51-5.43,5.68c-3.09,0.16-5.69-2.1-5.8-5.07
																									c-0.11-2.97,2.32-5.51,5.42-5.68C2304.88,1473.83,2307.48,1476.11,2307.58,1479.08z"/>
																							</g>
																						</g>
																					</g>
																				</g>
																			</g>
																		</g>
																	</g>
																</g>
															</g>
														</g>
													</g>
													<g>
														<g>
															<g>
																<g>
																	<g>
																		<g>
																			<g>
																				<g>
																					<g>
																						<g>
																							<g>
																								<g>
																									<path class="st4" d="M2309.66,1467.96c-0.7,0.73-4.96-2.42-11.01-2.4c-6.05-0.07-10.49,3.04-11.15,2.3
																										c-0.32-0.33,0.39-1.65,2.32-3.06c1.9-1.4,5.15-2.77,8.92-2.75c3.77,0.02,6.94,1.41,8.77,2.83
																										C2309.37,1466.3,2310,1467.63,2309.66,1467.96z"/>
																								</g>
																							</g>
																						</g>
																					</g>
																				</g>
																			</g>
																		</g>
																	</g>
																</g>
															</g>
														</g>
													</g>
												</g>
												<g>
													<g>
														<g>
															<g>
																<g>
																	<g>
																		<g>
																			<g>
																				<g>
																					<g>
																						<g>
																							<g>
																								<path class="st4" d="M2250.74,1479.08c0.1,2.97-2.32,5.51-5.42,5.68c-3.09,0.17-5.69-2.1-5.8-5.07
																									c-0.1-2.97,2.32-5.51,5.42-5.68C2248.04,1473.83,2250.64,1476.11,2250.74,1479.08z"/>
																							</g>
																						</g>
																					</g>
																				</g>
																			</g>
																		</g>
																	</g>
																</g>
															</g>
														</g>
													</g>
													<g>
														<g>
															<g>
																<g>
																	<g>
																		<g>
																			<g>
																				<g>
																					<g>
																						<g>
																							<g>
																								<g>
																									<path class="st4" d="M2250.15,1469.09c-0.7,0.73-4.97-2.42-11.02-2.4c-6.05-0.07-10.49,3.04-11.15,2.3
																										c-0.32-0.33,0.38-1.65,2.32-3.06c1.9-1.4,5.15-2.77,8.92-2.75c3.77,0.02,6.94,1.41,8.77,2.83
																										C2249.86,1467.43,2250.49,1468.76,2250.15,1469.09z"/>
																								</g>
																							</g>
																						</g>
																					</g>
																				</g>
																			</g>
																		</g>
																	</g>
																</g>
															</g>
														</g>
													</g>
												</g>
												<g>
													<g>
														<g>
															<g>
																<g>
																	<g>
																		<g>
																			<g>
																				<g>
																					<g>
																						<g>
																							<g>
																								<path class="st4" d="M2272.12,1513.99c-0.03-0.34,3.73-0.99,9.83-1.77c1.55-0.16,3.01-0.47,3.27-1.52
																									c0.37-1.12-0.28-2.78-1.03-4.58c-1.45-3.74-2.97-7.66-4.57-11.77c-6.35-16.76-10.94-30.54-10.27-30.79
																									c0.68-0.25,6.37,13.13,12.72,29.89c1.53,4.13,2.99,8.07,4.38,11.84c0.58,1.76,1.59,3.75,0.8,6.07
																									c-0.42,1.16-1.55,1.99-2.54,2.26c-0.99,0.3-1.86,0.32-2.62,0.37
																									C2275.95,1514.3,2272.14,1514.33,2272.12,1513.99z"/>
																							</g>
																						</g>
																					</g>
																				</g>
																			</g>
																		</g>
																	</g>
																</g>
															</g>
														</g>
													</g>
												</g>
												<g>
													<g>
														<g>
															<g>
																<g>
																	<g>
																		<g>
																			<g>
																				<g>
																					<g>
																						<g>
																							<g>
																								<path class="st4" d="M2254.3,1518.17c0.98-0.06,1,6.51,6.62,11.18c5.61,4.68,12.62,3.94,12.67,4.86
																									c0.09,0.41-1.56,1.28-4.52,1.36c-2.9,0.1-7.14-0.83-10.58-3.69c-3.43-2.86-4.91-6.68-5.13-9.37
																									C2253.12,1519.76,2253.86,1518.14,2254.3,1518.17z"/>
																							</g>
																						</g>
																					</g>
																				</g>
																			</g>
																		</g>
																	</g>
																</g>
															</g>
														</g>
													</g>
												</g>
											</g>
										</g>
									</g>
									<g>
										<g>
											<g>
												<g>
													<g>
														<g>
															<g>
																<g>
																	<g>
																		<g>
																			<g>
																				<path class="st4" d="M2251.71,1445.36c-0.6,1.65-6.64,0.87-13.74,1.72c-7.12,0.71-12.85,2.79-13.79,1.32
																					c-0.42-0.71,0.58-2.26,2.89-3.85c2.29-1.59,5.96-3.1,10.22-3.58c4.26-0.46,8.17,0.21,10.76,1.26
																					C2250.66,1443.29,2251.97,1444.58,2251.71,1445.36z"/>
																			</g>
																		</g>
																	</g>
																</g>
															</g>
														</g>
													</g>
												</g>
											</g>
										</g>
									</g>
									<g>
										<g>
											<g>
												<g>
													<g>
														<g>
															<g>
																<g>
																	<g>
																		<g>
																			<g>
																				<path class="st4" d="M2307.43,1450.44c-1.06,1.37-5.23-0.05-10.25-0.12c-5.01-0.24-9.26,0.92-10.24-0.51
																					c-0.43-0.7,0.24-2.08,2.1-3.38c1.83-1.3,4.89-2.36,8.33-2.25c3.45,0.11,6.43,1.36,8.18,2.76
																					C2307.32,1448.35,2307.9,1449.77,2307.43,1450.44z"/>
																			</g>
																		</g>
																	</g>
																</g>
															</g>
														</g>
													</g>
												</g>
											</g>
										</g>
									</g>
								</g>
							</g>
							<g>
								<g>
									<g>
										<g>
											<g>
												<g>
													<g>
														<g>
															<g>
																<g>
																	<g>
																		<g>
																			<path class="st9" d="M2186.05,1489.8c-0.67-0.29-27.07-8.01-26.21,18.93c0.86,26.93,27.72,20.51,27.74,19.74
																				C2187.61,1527.69,2186.05,1489.8,2186.05,1489.8z"/>
																		</g>
																	</g>
																</g>
															</g>
														</g>
													</g>
												</g>
											</g>
										</g>
									</g>
								</g>
								<g>
									<g>
										<g>
											<g>
												<g>
													<g>
														<g>
															<g>
																<g>
																	<g>
																		<g>
																			<g>
																				<path class="st13" d="M2179.03,1518.53c-0.12-0.08-0.46,0.34-1.24,0.73c-0.76,0.38-2.08,0.66-3.5,0.18
																					c-2.88-0.95-5.42-5.39-5.7-10.24c-0.15-2.45,0.29-4.8,1.1-6.76c0.76-2,1.99-3.41,3.41-3.71
																					c1.41-0.38,2.46,0.45,2.81,1.2c0.39,0.74,0.23,1.29,0.37,1.33c0.08,0.06,0.56-0.47,0.31-1.58
																					c-0.13-0.53-0.46-1.16-1.11-1.65c-0.66-0.51-1.62-0.74-2.62-0.6c-2.07,0.21-3.88,2.18-4.77,4.33
																					c-1,2.16-1.55,4.81-1.39,7.56c0.35,5.42,3.29,10.41,7.22,11.41c1.91,0.43,3.47-0.19,4.27-0.85
																					C2179,1519.18,2179.13,1518.57,2179.03,1518.53z"/>
																			</g>
																		</g>
																	</g>
																</g>
															</g>
														</g>
													</g>
												</g>
											</g>
										</g>
									</g>
								</g>
							</g>
						</g>
					</g>
					<g>
						<g>
							<g>
								<g>
									<g>
										<g>
											<g>
												<path class="st4" d="M2171.06,1488.89c4.11-0.99,11.21,2.8,12.96,6.64c1.75,3.85,2.14,8.2,3.88,12.05
													c1.75,3.85,5.69,7.33,9.81,6.36c2.84-0.67,4.86-3.33,5.61-6.15c0.75-2.82,0.45-5.79,0.08-8.69
													c-1.59-12.58-4.23-25.05-4.74-37.72c-0.51-12.67,1.3-25.83,7.95-36.62c6.65-10.79,18.87-18.73,31.51-17.71
													c8.37,0.67,16.05,5.04,24.36,6.2c9.86,1.38,20.28-2.1,27.34-9.13c0.9-0.9,5.11-3.67,5.11-3.67
													c0-0.65-0.62-6.28-2.83-8.33c-16.5-15.26-46.23-19.52-68.02-14.03c-21.79,5.48-42.22,20.87-51.59,41.29
													C2163.12,1439.82,2165.9,1468.22,2171.06,1488.89"/>
											</g>
										</g>
									</g>
								</g>
							</g>
						</g>
					</g>
				</g>
			</g>
			<g>
				<g>
					<g>
						<g>
							<path class="st5" d="M2316.89,1422.38c0,0-103.35-33.25-148.06,56.16c0,0-6.68-22.38-6.68-34.37
								c0-8.01,4.79-55.72,53.89-70.73C2216.03,1373.44,2289.99,1345.21,2316.89,1422.38z"/>
						</g>
					</g>
				</g>
			</g>
			<g>
				<g>
					<g>
						<g>
							<path class="st4" d="M2228.08,1424.61c3.65,5.9,10.17,9.93,17.08,10.56c6.91,0.63,14.05-2.16,18.71-7.3
								c2.04,5.09,7.52,8.59,13,8.3c5.48-0.29,10.56-4.34,12.06-9.62c3,2.91,6.13,5.9,10.05,7.34c3.93,1.44,8.9,0.89,11.48-2.4
								c2.63-3.35,1.86-8.46-0.71-11.85c-2.58-3.39-6.54-5.41-10.48-7.05c-12.28-5.13-25.81-7.7-39-5.91
								c-13.18,1.79-25.95,8.18-34.19,18.62"/>
						</g>
					</g>
				</g>
			</g>
			<g class="st8">
				<g>
					<g>
						<g>
							<path d="M2316.89,1422.38c0,0-11.76-13.99-32.86-14.92c-30.48-1.35-87.55,15.8-115.19,71.09c0,0-6.68-22.38-6.68-34.37
								c0-8.01,4.79-55.72,53.89-70.73C2216.03,1373.44,2289.99,1345.21,2316.89,1422.38z"/>
						</g>
					</g>
				</g>
			</g>
			<g>
				<g>
					<g>
						<path class="st5" d="M2173.14,1468.07c15.33-23.45,36.45-42.83,60.21-57.67c23.76-14.84,63.04-29.52,90.11-36.71
							c8.13-2.16,16.6-4.04,24.89-2.61c8.29,1.43,16.4,6.95,18.45,15.1c2.57,10.21-15.54,25.96-24.05,32.15
							c-8.51,6.19-25.88,15.28-25.88,15.28s0.23-18.93-30.07-22.83C2245.6,1405.47,2173.14,1468.07,2173.14,1468.07z"/>
					</g>
				</g>
			</g>
		</g>
		<g class="st12">
			<g>
				<g>
					<path d="M2136.77,1803.88c10.65,25.73,21.4,57.43,36.85,80.6c15.45,23.17,36.09,43.69,61.77,54.43
						c32.23,13.49,70.38,15.68,102.47,1.83c2.61-1.13,7.74-2.57,7.27-5.37c0,0-10.63-1.19-13.9-1.74
						c-64.84-10.94-71.87-18.94-102.9-43.47C2208.98,1874.87,2166.1,1828.64,2136.77,1803.88"/>
				</g>
			</g>
		</g>
		<g>
			<g>
				<g>
					<path class="st4" d="M2342.83,1991.11c0.12,0.06-0.69,2.26-2.69,6.01c-1.98,3.76-5.4,8.94-10.48,14.61
						c-10.05,11.45-27.94,23.85-50.21,30.72c-22.27,6.84-43.4,8.12-58.44,8.76c-7.55,0.28-13.66,0.34-17.89,0.32
						c-4.22-0.02-6.56-0.12-6.56-0.3c-0.01-0.18,2.32-0.41,6.53-0.7c4.72-0.3,10.69-0.68,17.82-1.14c14.98-1.1,35.89-2.67,57.77-9.4
						c21.85-6.74,39.47-18.61,49.65-29.5C2338.69,1999.65,2342.33,1990.8,2342.83,1991.11z"/>
				</g>
			</g>
		</g>
		<g>
			<g>
				<g>
					<path class="st11" d="M2622.01,2606.74c-0.04,0.01-0.18-0.51-0.39-1.53c-0.23-1.16-0.52-2.66-0.89-4.54
						c-0.76-4.17-1.82-10.03-3.18-17.5c-2.68-15.39-6.5-37.36-11.21-64.44c-9.25-54.6-21.97-129.74-36.03-212.75
						c-6.27-37.57-12.26-73.53-17.73-106.32l1.28,1c-57.51,4.21-106.68,7.8-141.66,10.36c-17.28,1.17-31.05,2.11-40.68,2.76
						c-4.6,0.27-8.21,0.48-10.83,0.64c-1.13,0.05-2.05,0.08-2.79,0.11c-0.63,0.01-0.95,0.01-0.95-0.03c0-0.03,0.31-0.09,0.94-0.17
						c0.74-0.08,1.65-0.19,2.78-0.31c2.62-0.25,6.22-0.59,10.81-1.02c9.62-0.82,23.37-1.98,40.63-3.45
						c34.96-2.79,84.1-6.7,141.59-11.28l1.09-0.09l0.18,1.09c5.52,32.79,11.57,68.73,17.9,106.3
						c13.77,83.05,26.23,158.24,35.29,212.87c4.37,27.13,7.92,49.15,10.41,64.57c1.15,7.5,2.06,13.39,2.7,17.58
						c0.26,1.9,0.48,3.41,0.64,4.58C2622.01,2606.2,2622.05,2606.73,2622.01,2606.74z"/>
				</g>
			</g>
		</g>
		<g>
			<g>
				<g>
					<path class="st11" d="M2587.01,2164.21c0.46,0.59-8.16,7.99-17.94,17.97c-9.82,9.94-17.09,18.68-17.68,18.23
						c-0.54-0.39,5.9-9.95,15.85-20.03C2577.15,2170.27,2586.6,2163.67,2587.01,2164.21z"/>
				</g>
			</g>
		</g>
	</g>
	<g>
		<g>
			<g>
				<path class="st4" d="M2284.52,1619.58c0.09-0.02,0.29,0.53,0.6,1.61c0.36,1.07,0.66,2.71,0.94,4.84
					c0.5,4.25,0.23,10.65-2.4,17.94c-2.66,7.21-7.85,15.32-16.25,21.35c-8.36,6.07-19.87,9.21-31.66,8.46
					c-11.82-0.8-22.68-5.25-30.74-11.52c-8.15-6.21-13.73-13.72-17.47-20.38c-3.69-6.74-5.66-12.65-6.69-16.78
					c-0.5-2.07-0.84-3.69-0.98-4.81c-0.16-1.11-0.21-1.7-0.12-1.72c0.56-0.19,1.78,9.4,9.36,22.4c3.85,6.38,9.41,13.53,17.32,19.4
					c7.81,5.92,18.19,10.08,29.49,10.85c11.26,0.72,22.18-2.2,30.13-7.83c8.02-5.59,13.15-13.22,15.92-20.06
					c2.73-6.92,3.29-13.06,3.1-17.22C2284.89,1621.92,2284.26,1619.64,2284.52,1619.58z"/>
			</g>
		</g>
	</g>
	<g>
		<g>
			<path class="st14" d="M2309.87,2236.03"/>
		</g>
	</g>
	<g>
		<g>
			<g>
				<path class="st4" d="M2354.13,1835.07c-0.18,0.02-0.54-1.82-1.05-5.15c-0.55-3.9-1.22-8.6-1.99-14.12
					c-1.63-12.57-3.74-28.75-6.06-46.65c-2.24-18.24-3.99-34.79-5.07-46.79c-0.54-6-0.93-10.86-1.12-14.22
					c-0.2-3.36-0.23-5.23-0.05-5.25c0.18-0.02,0.54,1.81,1.05,5.15c0.53,3.9,1.18,8.61,1.94,14.13c1.57,12.58,3.58,28.77,5.82,46.68
					c2.23,18.23,4.17,34.76,5.31,46.75c0.58,6,0.98,10.86,1.18,14.22C2354.28,1833.18,2354.31,1835.05,2354.13,1835.07z"/>
			</g>
		</g>
	</g>
</g>
</svg>
